<?xml version="1.0" encoding="UTF-8"?>
<svg width="26px" height="26px" viewBox="0 0 26 26" version="1.1" xmlns="http://www.w3.org/2000/svg" xmlns:xlink="http://www.w3.org/1999/xlink">
    <!-- Generator: Sketch 54.1 (76490) - https://sketchapp.com -->
    <title>Element/Icon Logo/Active Campaign</title>
    <desc>Created with Sketch.</desc>
    <g id="Element/Icon-Logo/Active-Campaign" stroke="none" stroke-width="1" fill="none" fill-rule="evenodd">
        <g id="active-campaign" transform="translate(4.000000, 0.000000)" fill="#0D5CAB" fill-rule="nonzero">
            <path d="M0.166073298,0.077591623 C5.76900524,3.8278534 11.3732984,7.57811518 16.9748691,11.3324607 C17.4349738,11.6183246 17.7889005,12.0498429 17.9685864,12.5630366 L17.9685864,13.3117277 C17.8501571,13.8834555 17.5384293,14.4143455 17.0265969,14.7179058 C11.6877487,18.2667016 6.35434555,21.8236649 1.01413613,25.3697382 C0.717382199,25.5548691 0.428795812,25.7508901 0.174240838,25.9959162 L0.10617801,25.9959162 C0.269528796,25.0702618 0.0789528796,24.1173822 0.210994764,23.187644 C0.349842932,22.5818848 0.943350785,22.2783246 1.41842932,21.9625131 C5.91057592,19.0017801 10.3782199,16.008377 14.867644,13.042199 C10.2502618,9.94806283 5.62198953,6.87162304 1.00732984,3.77340314 C0.59078534,3.5052356 0.176963351,3.10910995 0.171518325,2.57549738 C0.14973822,1.74513089 0.176963351,0.912041885 0.166073298,0.0789528796 L0.166073298,0.077591623 Z M0.172879581,7.74554974 C0.172879581,7.39570681 0.464188482,7.08125654 0.812670157,7.0513089 C1.12303665,7.0104712 1.40481675,7.16973822 1.65256545,7.33308901 C4.33015707,9.10272251 6.99549738,10.8859686 9.66764398,12.6637696 C9.11633508,13.0081675 8.62356021,13.4505759 8.0286911,13.7187435 C7.44335079,13.981466 6.75727749,13.8521466 6.24136126,13.4982199 C4.20628272,12.177801 2.2052356,10.8029319 0.176963351,9.46890052 C0.163350785,8.89445026 0.157905759,8.32 0.172879581,7.74691099 L0.172879581,7.74554974 Z" id="Shape"></path>
        </g>
    </g>
</svg>