<?xml version="1.0" encoding="UTF-8"?>
<svg width="26px" height="26px" viewBox="0 0 26 26" version="1.1" xmlns="http://www.w3.org/2000/svg" xmlns:xlink="http://www.w3.org/1999/xlink">
    <!-- Generator: Sketch 54.1 (76490) - https://sketchapp.com -->
    <title>Element/Icon Logo/Campaign Monitor</title>
    <desc>Created with Sketch.</desc>
    <g id="Element/Icon-Logo/Campaign-Monitor" stroke="none" stroke-width="1" fill="none" fill-rule="evenodd">
        <g id="Group" transform="translate(0.000000, 4.000000)">
            <path d="M25.6839216,0.411226251 C25.3620471,-0.0215801422 24.7587753,-0.128828457 24.307451,0.166520369 L13.9686275,7.41593213 C13.6678535,7.62055085 13.3127941,7.73061928 12.9490196,7.73201056 C12.5851496,7.73124423 12.229911,7.62112029 11.9294118,7.41593213 L1.54980392,0.166520369 C1.24641784,-0.0194619744 0.868016469,-0.0338142535 0.551414153,0.128652725 C0.234811836,0.291119703 0.0258194381,0.606897733 2.30926389e-14,0.961814487 L2.30926389e-14,16.5108341 C2.30926389e-14,17.073948 0.456493981,17.5304419 1.01960784,17.5304419 L24.8988235,17.5304419 C25.4619374,17.5304419 25.9184314,17.073948 25.9184314,16.5108341 L25.9184314,0.951618408 C25.8951331,0.752337796 25.8135579,0.564360144 25.6839216,0.411226251" id="Path" fill="#0A9DCC"></path>
            <path d="M0.978823529,17.4998537 L24.8988235,17.4998537 C25.4619374,17.4998537 25.9184314,17.0433597 25.9184314,16.4802459 L25.9184314,0.951618408 C25.8926119,0.596701654 25.6836195,0.280923624 25.3670172,0.118456646 C25.0504149,-0.0440103319 24.6720135,-0.0296580528 24.3686275,0.15632429 L0.19372549,17.0818145 C0.38199102,17.3395549 0.680087543,17.4942632 0.999215686,17.4998537" id="Path" fill="#6AC7DC"></path>
        </g>
    </g>
</svg>