<?xml version="1.0" encoding="UTF-8"?>
<svg width="26px" height="26px" viewBox="0 0 26 26" version="1.1" xmlns="http://www.w3.org/2000/svg" xmlns:xlink="http://www.w3.org/1999/xlink">
    <!-- Generator: Sketch 54.1 (76490) - https://sketchapp.com -->
    <title>Element/Icon Logo/Drip</title>
    <desc>Created with Sketch.</desc>
    <g id="Element/Icon-Logo/Drip" stroke="none" stroke-width="1" fill="none" fill-rule="evenodd">
        <g id="Group-9" transform="translate(3.000000, 0.000000)" fill="#F224F2" fill-rule="nonzero">
            <path d="M20.4998374,15.7025203 L17.4204228,15.7025203 C17.4265528,15.8041951 17.4309919,15.9037561 17.4309919,16.0012033 C17.4309919,20.3260813 13.7053821,23.0053496 10.2530894,23.0053496 C6.80058537,23.0053496 3.07730081,20.3260813 3.07730081,16.0012033 C3.07730081,15.9037561 3.07962602,15.8041951 3.08596748,15.7025203 L0.00655284553,15.7025203 C0.00211382114,15.8020813 1.77635684e-13,15.9018537 1.77635684e-13,16.0012033 C1.77635684e-13,21.9547805 5.12770732,25.9260163 10.2530894,25.9260163 C15.3784715,25.9260163 20.5061789,21.9547805 20.5061789,16.0012033 C20.5063902,15.902065 20.504065,15.8020813 20.4998374,15.7025203" id="Path"></path>
            <path d="M10.2533008,3.70869919 L12.449561,6.52325203 L16.325252,6.52325203 C13.4893496,2.82110569 10.2530894,2.84217094e-13 10.2530894,2.84217094e-13 C10.2530894,2.84217094e-13 7.01682927,2.82131707 4.18071545,6.52325203 L8.05682927,6.52325203 L10.2533008,3.70869919 Z" id="Path"></path>
            <path d="M12.3034959,11.1766179 C12.3034959,12.2502276 11.3865203,13.122813 10.255626,13.122813 C9.12029268,13.122813 8.20331707,12.2502276 8.20331707,11.1766179 C8.20331707,10.1006829 9.12029268,9.22809756 10.255626,9.22809756 C11.3865203,9.22830894 12.3034959,10.1006829 12.3034959,11.1766179" id="Path"></path>
            <path d="M18.4561951,11.1766179 C18.4561951,12.2502276 17.5368943,13.122813 16.406,13.122813 C15.270878,13.122813 14.3536911,12.2502276 14.3536911,11.1766179 C14.3536911,10.1006829 15.270878,9.22809756 16.406,9.22809756 C17.5368943,9.22830894 18.4561951,10.1006829 18.4561951,11.1766179" id="Path"></path>
            <path d="M6.15291057,11.1766179 C6.15291057,12.2502276 5.23593496,13.122813 4.10271545,13.122813 C2.96970732,13.122813 2.0504065,12.2502276 2.0504065,11.1766179 C2.0504065,10.1006829 2.96970732,9.22809756 4.10271545,9.22809756 C5.23593496,9.22830894 6.15291057,10.1006829 6.15291057,11.1766179" id="Path"></path>
        </g>
    </g>
</svg>