<?xml version="1.0" encoding="UTF-8"?>
<svg width="26px" height="26px" viewBox="0 0 26 26" version="1.1" xmlns="http://www.w3.org/2000/svg" xmlns:xlink="http://www.w3.org/1999/xlink">
    <!-- Generator: Sketch 54.1 (76490) - https://sketchapp.com -->
    <title>Element/Icon Logo/Facebook Adds</title>
    <desc>Created with Sketch.</desc>
    <g id="Element/Icon-Logo/Facebook-Adds" stroke="none" stroke-width="1" fill="none" fill-rule="evenodd">
        <g id="01022b6c-c69d-48f8-a2a2-e097ad3c171f-(1)" transform="translate(0.000000, 2.000000)">
            <path d="M10.5972414,13.7351724 C10.6615905,14.4477428 10.9539884,15.1205723 11.4310345,15.6537931 C12.1482759,16.2813793 10.8572414,16.9537931 9.94275862,16.6937931 C9.02827586,16.4337931 8.96551724,13.7351724 8.96551724,13.7351724 L10.5972414,13.7351724 Z" id="Path" fill="#6079AD"></path>
            <path d="M10.8751724,19.9034483 L10.2386207,14.9724138 L5.31655172,16.2096552 L7.42344828,21.0510345 C7.69241379,21.8131034 8.75931034,21.9475862 9.70965517,21.6068966 C10.4332481,21.3607933 10.9079174,20.6670458 10.8751724,19.9034483 L10.8751724,19.9034483 Z" id="Path" fill="#D6D3C9"></path>
            <path d="M6.75103448,10.8751724 C6.0475747,11.0747087 5.42191903,11.4845131 4.95793103,12.0496552 L9.60206897,12.0496552 C9.04397083,11.0388766 7.85915149,10.5507907 6.75103448,10.8751724 Z" id="Path" fill="#FDB701" opacity="0.5"></path>
            <path d="M10.0144828,13.1972414 C9.96288852,12.7889365 9.82866577,12.3954198 9.62,12.0406897 L4.97586207,12.0406897 C4.41969282,12.6957537 4.25249564,13.5965712 4.53655172,14.4075862 L5.31655172,16.2006897 L10.2386207,14.9544828 L10.0144828,13.1972414 Z" id="Path" fill="#AEAAA1"></path>
            <path d="M10.157931,5.96206686 L4.3662069,5.96206897 C2.64865402,5.96020002 1.18134918,7.20001574 0.896551724,8.8937931 L10.157931,8.8937931 L10.157931,5.96206686 L10.157931,5.96206686 Z" id="Path" fill="#667A9F"></path>
            <path d="M10.157931,8.8937931 L0.896551724,8.8937931 C0.862982552,9.08326769 0.844991352,9.27517383 0.842758621,9.46758621 L0.842758621,10.7586207 C0.843613788,11.0334956 0.876713582,11.3073212 0.94137931,11.5744828 L10.157931,11.5744828 L10.157931,8.8937931 Z" id="Path" fill="#405988"></path>
            <path d="M4.3662069,14.2910345 L10.157931,14.2910345 L10.157931,11.6013793 L0.950344828,11.6013793 C1.33127616,13.1791438 2.74310814,14.2908226 4.3662069,14.2910345 Z" id="Path" fill="#3B527F"></path>
            <path d="M25.1034483,5.2 L25.1034483,0.645517241 L23.5793103,0.645517241 C23.4986207,6.02482759 10.1310345,5.96206897 10.1310345,5.96206897 L10.1310345,8.8937931 C10.1310345,8.8937931 22.0282759,8.88482759 25.1034483,5.2 L25.1034483,5.2 Z" id="Path" fill="#DFDDD5"></path>
            <path d="M10.157931,11.5924138 L10.157931,14.282069 C10.157931,14.282069 23.4806897,14.282069 23.6062069,19.8496552 L23.9468966,19.8496552 L23.9468966,14.2641379 C19.7241379,11.6013793 10.157931,11.5924138 10.157931,11.5924138 L10.157931,11.5924138 Z" id="Path" fill="#C6C3B8"></path>
            <path d="M23.92,6.22206897 C19.6972414,8.91172414 10.157931,8.91172414 10.157931,8.91172414 L10.157931,11.6013793 C10.157931,11.6013793 19.7062069,11.6013793 23.92,14.2910345 L23.92,6.22206897 Z M24.3144828,14.5331034 L24.2248276,14.4703448 L24.3144828,14.5331034 Z M24.7,14.8468966 L24.5475862,14.7213793 L24.7,14.8468966 Z M24.8613793,14.9903448 C24.96,15.0889655 25.0586207,15.1875862 25.1482759,15.2951724 C25.0579353,15.1887097 24.9621765,15.086966 24.8613793,14.9903448 Z" id="Shape" fill="#D2CFC4" fill-rule="nonzero"></path>
            <path d="M24.6781884,14.7124138 L24.3871436,14.5331034 L24.6781884,14.7124138 Z M24.2685698,14.4703448 L23.902069,14.2641379 L24.2685698,14.4703448 Z M23.9236278,0.645517241 L23.9236278,6.22206897 C24.4560878,5.94178361 24.9356035,5.59734405 25.3465134,5.2 L25.3465134,0.645517241 L23.9236278,0.645517241 Z M24.8614388,14.8468966 L25.0554686,14.9903448 L24.8614388,14.8468966 Z" id="Shape" fill="#F5F2E6" fill-rule="nonzero"></path>
            <path d="M23.92,6.22206897 L23.92,14.2910345 L24.2248276,14.4972414 L24.3144828,14.56 L24.5565517,14.7393103 L24.7089655,14.8648276 L24.8703448,15.0082759 C24.9711646,15.1048746 25.0669246,15.2066195 25.1572414,15.3131034 L25.1572414,5.2 C24.7991114,5.60153016 24.3819137,5.94617175 23.92,6.22206897 L23.92,6.22206897 Z" id="Path" fill="#F1EDDC"></path>
            <path d="M23.92,14.2641379 L23.92,19.8586207 L25.1034483,19.8586207 L25.1034483,15.2862069 C24.7616846,14.8888628 24.3628598,14.5444233 23.92,14.2641379 L23.92,14.2641379 Z" id="Path" fill="#E3DFCF"></path>
            <polygon id="Path" fill="#E3DFCF" points="23.92 14.2641379 25.1482759 14.2641379 25.1482759 15.4117241 23.92 15.4117241"></polygon>
            <polygon id="Path" fill="#F5F2E6" points="23.92 0.645517241 25.1482759 0.645517241 25.1482759 6.22206897 23.92 6.22206897"></polygon>
        </g>
    </g>
</svg>