<?xml version="1.0" encoding="UTF-8"?>
<svg width="26px" height="26px" viewBox="0 0 26 26" version="1.1" xmlns="http://www.w3.org/2000/svg" xmlns:xlink="http://www.w3.org/1999/xlink">
    <!-- Generator: Sketch 54.1 (76490) - https://sketchapp.com -->
    <title>Element/Icon Logo/Facebook</title>
    <desc>Created with Sketch.</desc>
    <g id="Element/Icon-Logo/Facebook" stroke="none" stroke-width="1" fill="none" fill-rule="evenodd">
        <g id="Facebook-01">
            <g id="Group-3">
                <polygon id="Clip-2" points="0.00410526316 0.0681049869 26 0.0681049869 26 26 0.00410526316 26"></polygon>
                <path d="M24.5650737,26 C25.3574579,26 26,25.3591444 26,24.5687717 L26,1.49933333 C26,0.708755906 25.3574579,0.0681049869 24.5650737,0.0681049869 L1.43499474,0.0681049869 C0.642268421,0.0681049869 0,0.708755906 0,1.49933333 L0,24.5687717 C0,25.3591444 0.642268421,26 1.43499474,26 L24.5650737,26" id="Fill-1" fill="#3A5285"></path>
            </g>
            <path d="M17.9395211,26 L17.9395211,15.9578583 L21.3192474,15.9578583 L21.8251526,12.0441417 L17.9395211,12.0441417 L17.9395211,9.54548031 C17.9395211,8.41239895 18.2550105,7.64017848 19.8841842,7.64017848 L21.9620632,7.63929134 L21.9620632,4.13891339 C21.6025789,4.09128084 20.3692211,3.98475591 18.9342263,3.98475591 C15.9384105,3.98475591 13.8874211,5.80857743 13.8874211,9.15800525 L13.8874211,12.0441417 L10.4991421,12.0441417 L10.4991421,15.9578583 L13.8874211,15.9578583 L13.8874211,26 L17.9395211,26" id="Fill-4" fill="#FFFFFE"></path>
        </g>
    </g>
</svg>