<?xml version="1.0" encoding="UTF-8"?>
<svg width="26px" height="26px" viewBox="0 0 26 26" version="1.1" xmlns="http://www.w3.org/2000/svg" xmlns:xlink="http://www.w3.org/1999/xlink">
    <!-- Generator: Sketch 54.1 (76490) - https://sketchapp.com -->
    <title>Element/Icon Logo/Google Analuytics</title>
    <desc>Created with Sketch.</desc>
    <g id="Element/Icon-Logo/Google-Analuytics" stroke="none" stroke-width="1" fill="none" fill-rule="evenodd">
        <g id="c292b196-f332-4b48-b9a6-3328a2cce3df">
            <path d="M23.7391304,0.113043478 L19.1043478,0.113043478 C17.973913,0.113043478 17.0695652,1.0173913 17.0695652,2.14782609 L17.0695652,25.773913 L23.7391304,25.773913 C24.8695652,25.773913 25.773913,24.8695652 25.8869565,23.7391304 L25.8869565,2.26086957 C25.8869565,1.13043478 24.9826087,0.226086957 23.7391304,0.113043478 C23.8521739,0.113043478 23.7391304,0.113043478 23.7391304,0.113043478 Z" id="Path" fill="#F37C00"></path>
            <path d="M8.25217391,10.2869565 L8.25217391,17.0695652 L2.14782609,17.0695652 C1.0173913,17.0695652 0.113043478,17.973913 0.113043478,19.1043478 L0.113043478,23.8521739 C0.113043478,24.9826087 1.0173913,25.8869565 2.14782609,25.8869565 L17.0695652,25.8869565 L17.0695652,8.25217391 L10.2869565,8.25217391 C9.15652174,8.25217391 8.25217391,9.15652174 8.25217391,10.2869565 Z" id="Path" fill="#FCBF07"></path>
            <path d="M17.0695652,8.25217391 L17.0695652,25.8869565 L23.7391304,25.8869565 C24.8695652,25.8869565 25.773913,24.9826087 25.8869565,23.8521739 L25.8869565,16.9565217 L17.0695652,8.25217391 L17.0695652,8.25217391 Z" id="Path" fill="#E26B00"></path>
        </g>
    </g>
</svg>