<?xml version="1.0" encoding="UTF-8"?>
<svg width="26px" height="26px" viewBox="0 0 26 26" version="1.1" xmlns="http://www.w3.org/2000/svg" xmlns:xlink="http://www.w3.org/1999/xlink">
    <!-- Generator: Sketch 54.1 (76490) - https://sketchapp.com -->
    <title>Element/Icon Logo/Google-my-business</title>
    <desc>Created with Sketch.</desc>
    <g id="Element/Icon-Logo/Google-my-business" stroke="none" stroke-width="1" fill="none" fill-rule="evenodd">
        <g id="Group-20" transform="translate(0.000000, 2.000000)">
            <path d="M1.79310345,8.06896552 L24.2068966,8.06896552 L24.2068966,20.7564109 C24.2068966,21.6679772 23.4676667,22.4137931 22.5642715,22.4137931 L3.43572846,22.4137931 C2.53233327,22.4137931 1.79310345,21.6679772 1.79310345,20.7564109 L1.79310345,8.06896552" id="Fill-3" fill="#4A8AF4"></path>
            <g id="Group-19">
                <path d="M0.401906542,6.7939099 L0.00388785047,8.18585465 C0.0013364486,8.238033 -3.62376795e-13,8.29057286 -3.62376795e-13,8.34347423 C-3.62376795e-13,10.1162125 1.46401869,11.5532258 3.27004673,11.5532258 C5.03792523,11.5532258 6.47813084,10.1762236 6.53802804,8.45530219 C6.53669159,8.41818687 6.53608411,8.38095106 6.53608411,8.34347423 C6.53608411,8.30611791 6.53669159,8.26876159 6.53802804,8.23176678 C6.53754206,8.21634223 6.53681308,8.20115869 6.53620561,8.18585465 L6.52575701,8.18585465 L7.60062617,-1.13686838e-13 L3.43673832,-1.13686838e-13 C2.67301869,-1.13686838e-13 2.02654206,0.523591027 1.84442056,1.22673341 L0.401906542,6.7939099" id="Fill-4" fill="#80ADF7"></path>
                <path d="M13.0027944,8.18585465 L13.0065607,8.18585465 L13.0065607,-1.13686838e-13 L7.60062617,-1.13686838e-13 L6.52575701,8.18585465 C6.52320561,8.238033 6.52199065,8.29057286 6.52199065,8.34347423 C6.52199065,10.1162125 7.97313084,11.5532258 9.76336449,11.5532258 C11.5158131,11.5532258 12.9433832,10.1762236 13.0027944,8.45530219 C13.0014579,8.41818687 13.0008505,8.38095106 13.0008505,8.34347423 C13.0008505,8.30611791 13.0014579,8.26876159 13.0027944,8.23176678 C13.0023084,8.21634223 13.0015794,8.20115869 13.0008505,8.18585465 L13.0027944,8.18585465" id="Fill-5" fill="#4A5BB9"></path>
                <path d="M6.53705607,8.47680615 C6.46428037,10.1683791 5.02942056,11.5179647 3.27004673,11.5179647 C2.73862617,11.5179647 2.23672897,11.3949066 1.79314953,11.1763352 L1.79314953,11.1853976 L13.0065607,22.1485454 L22.5765047,22.1485454 C23.4804299,22.1485454 24.2200935,21.4225976 24.2200935,20.5353148 L24.2200935,11.1433051 C25.2046916,10.6243621 25.883972,9.61819456 25.9245514,8.4524807 C25.923215,8.41575403 25.9226075,8.37878888 25.9226075,8.34182373 C25.9226075,8.30485859 25.923215,8.26789344 25.9245514,8.23128601 L25.9226075,8.18585465 L19.4713271,8.18585465 C19.4713271,8.18609314 19.4713271,8.18633162 19.4713271,8.18657011 C19.4720561,8.20147541 19.4726636,8.21638071 19.4731495,8.23128601 C19.4719346,8.26789344 19.4712056,8.30485859 19.4712056,8.34182373 C19.4712056,8.37878888 19.4719346,8.41575403 19.4731495,8.4524807 C19.4726636,8.46726676 19.4720561,8.48217206 19.4713271,8.49707736 C19.3888318,10.1791109 17.9731682,11.5179647 16.2389439,11.5179647 C14.4894112,11.5179647 13.064028,10.1553817 13.0046168,8.4524807 C12.9453271,10.1553817 11.5200654,11.5179647 9.77041121,11.5179647 C8.02926168,11.5179647 6.6092243,10.1683791 6.53705607,8.47680615" id="Fill-6" fill="#4A7DE2"></path>
                <path d="M19.3734019,7.54175936 L18.3830935,-1.13686838e-13 L13.0065607,-1.13686838e-13 L13.0065607,8.18585465 L13.0055888,8.18585465 C13.0030374,8.238033 13.0017009,8.29057286 13.0017009,8.34347423 C13.0017009,10.1162125 14.4508972,11.5532258 16.2384579,11.5532258 C17.9882336,11.5532258 19.4138598,10.1762236 19.473271,8.45530219 C19.4719346,8.41818687 19.4712056,8.38095106 19.4712056,8.34347423 C19.4712056,8.30611791 19.4719346,8.26876159 19.473271,8.23176678 C19.4726636,8.21634223 19.4720561,8.20115869 19.4713271,8.18585465 L19.4579626,8.18585465 L19.3734019,7.54175936" id="Fill-7" fill="#80ADF7"></path>
                <path d="M19.4713271,8.18585465 C19.4687757,8.238033 19.4675607,8.29057286 19.4675607,8.34347423 C19.4675607,10.1162125 20.9134766,11.5532258 22.697028,11.5532258 C24.4429159,11.5532258 25.8652617,10.1762236 25.9245514,8.45530219 C25.923215,8.41818687 25.9226075,8.38095106 25.9226075,8.34347423 C25.9226075,8.30611791 25.923215,8.26876159 25.9245514,8.23176678 C25.9240654,8.21634223 25.9233364,8.20115869 25.9226075,8.18585465 L25.5818131,6.7939099 L24.1392991,1.22673341 C23.9570561,0.523591027 23.3107009,-1.13686838e-13 22.5468598,-1.13686838e-13 L18.3830935,-1.13686838e-13 L19.4579626,8.18585465 L19.4713271,8.18585465" id="Fill-8" fill="#4A5BB9"></path>
                <path d="M22.2913551,17.4000927 L22.2913551,17.3782814 C22.2903832,17.1558306 22.2698505,16.941815 22.2324299,16.7361142 L19.1799813,16.7361142 L19.1799813,17.9795977 L20.9242897,17.9795977 C20.8490841,18.3813589 20.6207944,18.721904 20.2775701,18.9497775 L20.2775701,19.7564331 L21.3249813,19.7564331 C21.9364673,19.1978958 22.2897757,18.3761772 22.2913551,17.4000927" id="Fill-9" fill="#FFFFFE"></path>
                <path d="M19.1799813,20.5351316 C20.0551121,20.5351316 20.7887009,20.2473674 21.3249813,19.7564331 L20.2775701,18.9497775 C19.9873178,19.1427049 19.616028,19.2565814 19.1799813,19.2565814 C18.3358318,19.2565814 17.6213178,18.6911754 17.3665421,17.931396 L16.2837757,17.931396 L16.2837757,18.764201 C16.8170187,19.8148776 17.913028,20.5351316 19.1799813,20.5351316" id="Fill-10" fill="#FFFFFE"></path>
                <path d="M17.3665421,17.931396 C17.3016636,17.7384687 17.2648505,17.5325269 17.2648505,17.3205599 C17.2648505,17.1087134 17.3016636,16.9027716 17.3665421,16.7098443 L17.3665421,15.8769188 L16.2837757,15.8769188 C16.0642336,16.3109752 15.938972,16.8019095 15.938972,17.3205599 C15.938972,17.8393307 16.0642336,18.3302651 16.2837757,18.764201 L17.3665421,17.931396" id="Fill-11" fill="#FFFFFE"></path>
                <path d="M19.1799813,15.3845384 C19.6558785,15.3845384 20.0830561,15.5467371 20.4189907,15.8653504 L21.3485514,14.9432518 C20.787243,14.4246014 20.0536542,14.1061086 19.1799813,14.1061086 C17.913028,14.1061086 16.8170187,14.8263626 16.2837757,15.8769188 L17.3665421,16.7098443 C17.6213178,15.9500649 18.3358318,15.3845384 19.1799813,15.3845384" id="Fill-12" fill="#FFFFFE"></path>
            </g>
            <path d="M6.27411272,8.06896552 L0.00373195299,8.06896552 C0.00128285884,8.12453478 0,8.18048906 0,8.23682834 C0,10.1247717 1.40531355,11.6551724 3.13892233,11.6551724 C4.83591133,11.6551724 6.21825004,10.1886828 6.27586207,8.35592367 C6.27469583,8.31639634 6.27399609,8.27661234 6.27399609,8.23682834 C6.27399609,8.19704433 6.27469583,8.15726033 6.27586207,8.11786134 C6.27539557,8.1014344 6.27469583,8.08513579 6.27411272,8.06896552" id="Fill-13" fill="#78A1E4"></path>
            <path d="M19.7222514,8.06896552 L13.4519311,8.06896552 C13.449455,8.12453478 13.4482759,8.18048906 13.4482759,8.23682834 C13.4482759,10.1247717 14.8536417,11.6551724 16.5871502,11.6551724 C18.2841067,11.6551724 19.6664801,10.1886828 19.7241379,8.35592367 C19.7228409,8.31639634 19.7222514,8.27661234 19.7222514,8.23682834 C19.7222514,8.19704433 19.7228409,8.15726033 19.7241379,8.11786134 C19.7235484,8.1014344 19.7229588,8.08513579 19.7222514,8.06896552" id="Fill-14" fill="#78A1E4"></path>
            <path d="M12.5499528,8.06896552 L6.27964086,8.06896552 C6.27716103,8.12453478 6.27586207,8.18048906 6.27586207,8.23682834 C6.27586207,10.1247717 7.68121778,11.6551724 9.4147378,11.6551724 C11.1117689,11.6551724 12.4940976,10.1886828 12.5517241,8.35592367 C12.5505433,8.31639634 12.5498347,8.27661234 12.5498347,8.23682834 C12.5498347,8.19704433 12.5505433,8.15726033 12.5517241,8.11786134 C12.5512518,8.1014344 12.5506614,8.08513579 12.5499528,8.06896552" id="Fill-15" fill="#4857AD"></path>
            <path d="M25.9981106,8.06896552 L19.7277986,8.06896552 C19.7253188,8.12453478 19.7241379,8.18048906 19.7241379,8.23682834 C19.7241379,10.1247717 21.1294936,11.6551724 22.8630137,11.6551724 C24.5599267,11.6551724 25.9423734,10.1886828 26,8.35592367 C25.998701,8.31639634 25.9981106,8.27661234 25.9981106,8.23682834 C25.9981106,8.19704433 25.998701,8.15726033 26,8.11786134 C25.9995277,8.1014344 25.9988191,8.08513579 25.9981106,8.06896552" id="Fill-16" fill="#4857AD"></path>
        </g>
    </g>
</svg>