<?xml version="1.0" encoding="UTF-8"?>
<svg width="26px" height="23px" viewBox="0 0 26 23" version="1.1" xmlns="http://www.w3.org/2000/svg" xmlns:xlink="http://www.w3.org/1999/xlink">
    <!-- Generator: Sketch 54.1 (76490) - https://sketchapp.com -->
    <title>google-pagespeed-insights (1)</title>
    <desc>Created with Sketch.</desc>
    <defs>
        <linearGradient x1="26.6473521%" y1="40.2654895%" x2="86.285541%" y2="89.2646139%" id="linearGradient-1">
            <stop stop-color="#212121" stop-opacity="0.2" offset="0%"></stop>
            <stop stop-color="#212121" stop-opacity="0" offset="100%"></stop>
        </linearGradient>
        <radialGradient cx="2.46460888%" cy="1.75606234%" fx="2.46460888%" fy="1.75606234%" r="144.175323%" gradientTransform="translate(0.024646,0.017561),scale(0.865385,1.000000),translate(-0.024646,-0.017561)" id="radialGradient-2">
            <stop stop-color="#FFFFFF" stop-opacity="0.1" offset="0%"></stop>
            <stop stop-color="#FFFFFF" stop-opacity="0" offset="100%"></stop>
        </radialGradient>
    </defs>
    <g id="06-Symbols" stroke="none" stroke-width="1" fill="none" fill-rule="evenodd">
        <g id="Element/Icon-Logo/Google-page-speed-insights" transform="translate(0.000000, -2.000000)" fill-rule="nonzero">
            <g id="google-pagespeed-insights-(1)" transform="translate(0.000000, 2.000000)">
                <path d="M26,3.5 L25.9999997,20.7185401 C26.0002527,21.1907585 25.8138382,21.6437369 25.4817653,21.9778254 C25.1496924,22.3119139 24.6991628,22.4997457 24.2292879,22.4999997 L1.7726189,22.4999997 C0.794527134,22.5005294 0.00105270185,21.7043844 0,20.721415 L0,3.5 L26,3.5 Z" id="Path" fill="#E1E1E1"></path>
                <path d="M1.7717306,0 L24.2282697,0 C25.206025,-5.58459907e-07 25.9989475,0.780882688 26,1.74482944 L26,3.5 L0,3.5 L2.57120598e-07,1.74764974 C-0.000252713049,1.28439352 0.186168632,0.840012007 0.51825371,0.512264088 C0.850338788,0.18451617 1.30088491,0.000249263485 1.77077703,1.93923726e-16 L1.7717306,0 Z" id="Path" fill="#C2C2C2"></path>
                <path d="M24.2282694,0 L1.77173034,0 C0.794163646,0.00327494865 0.00261718866,0.828446786 0,1.84699454 L0,1.99403875 C0.00575082449,0.977819515 0.796384974,0.156258949 1.77173034,0.153005464 L24.2282694,0.153005464 C25.2058361,0.156280413 25.9973825,0.98145225 26,2 L25.9999997,1.85295579 C26.0005305,0.832081058 25.2080661,0.00328592818 24.2282694,0 Z" id="Path" fill-opacity="0.2" fill="#FFFFFF"></path>
                <polygon id="Path" fill-opacity="0.1" fill="#212121" points="0 3.42944915 26 3.42944915 26 3.57055085 0 3.57055085"></polygon>
                <path d="M12.816334,9.00095498 C7.67383518,9.00095498 3.5050162,13.2086429 3.5050162,18.399089 L3.5050162,18.41143 C3.5050162,18.6088857 3.49372975,18.8519082 3.5050162,19 L7.57283938,19 C7.56184881,18.8039668 7.56184881,18.6074632 7.57283938,18.41143 C7.57559532,16.4934042 8.60520466,14.7266574 10.2647612,13.7922562 C11.9243178,12.857855 13.9546375,12.9017311 15.5730484,13.9069708 L18.5,10.9527291 C16.8715906,9.68453366 14.8722004,8.99772164 12.8153935,9.00000568 L12.816334,9.00095498 Z" id="Path" fill="#4285F4"></path>
                <path d="M18.8914337,11 L16,13.9380823 C17.5312513,14.8940938 18.4648188,16.5888398 18.4661683,18.4150254 C18.4770185,18.6098611 18.4770185,18.8051643 18.4661683,19 L22.4950479,19 C22.5061902,18.8603609 22.4950479,18.6112749 22.4950479,18.4150254 C22.4947214,15.5082315 21.1626477,12.7672719 18.8914337,11 L18.8914337,11 Z" id="Path" fill="#F44336"></path>
                <circle id="Oval" fill="#EEEEEE" cx="2.5" cy="2" r="1"></circle>
                <circle id="Oval" fill="#EEEEEE" cx="4.5" cy="2" r="1"></circle>
                <path d="M24.2315844,22.3525162 L1.77222894,22.3525162 C0.794540828,22.3497785 0.00261905538,21.5219803 0,20.5 L0,20.6474838 C0.00261905538,21.6694641 0.794540828,22.4972623 1.77222894,22.5 L24.2315844,22.5 C25.207783,22.4950766 25.9973928,21.6679154 26,20.6474838 L26,20.5 C25.9973928,21.5204315 25.207783,22.3475928 24.2315844,22.3525162 L24.2315844,22.3525162 Z" id="Path" fill-opacity="0.1" fill="#212121"></path>
                <path d="M18.9445564,11.4568545 C18.9807112,11.408012 19.0001389,11.3489989 18.9999993,11.2884421 C18.9994834,11.1293525 18.8693611,11.0005117 18.7086891,11.000001 C18.6432583,10.9998285 18.5798043,11.0221969 18.5292045,11.0632719 L12.1805237,15.9016393 C11.624785,16.3255509 11.3792557,17.0376384 11.5571517,17.7095508 C11.7350478,18.3814633 12.3018181,18.882701 12.9961189,18.982138 C13.6904197,19.081575 14.3774031,18.7598985 14.7402938,18.1654369 L18.9436167,11.4568545 L18.9445564,11.4568545 Z" id="Path" fill="#9E9E9E"></path>
                <path d="M12.1795981,15.6660805 L18.5300164,10.7115225 C18.6059911,10.6489673 18.7082005,10.6300254 18.8010962,10.6612847 C18.8939919,10.6925441 18.9647347,10.7696843 18.9887204,10.8658761 C18.9954947,10.8429722 18.9992867,10.8192691 19,10.7953689 C18.9994841,10.6324588 18.8693261,10.500524 18.7086102,10.500001 C18.6431614,10.4998244 18.5796901,10.52273 18.5290764,10.5647914 L12.180538,15.5193494 C11.7508127,15.853676 11.4992287,16.3718147 11.5000018,16.9209176 L11.5,17 C11.5199821,16.475153 11.768972,15.9864328 12.1795981,15.6660805 L12.1795981,15.6660805 Z" id="Path" fill="#FFFFFF" opacity="0.2"></path>
                <path d="M18.9398414,11.1003359 L14.7363086,17.9938867 C14.3378659,18.6619091 13.556547,18.986439 12.8119585,18.7931877 C12.0673701,18.5999365 11.5346933,17.9343708 11.5000019,17.1539323 L11.5000019,17.2217784 C11.4988533,18.0191926 12.0207947,18.7195648 12.7762127,18.9342743 C13.5316307,19.1489838 14.3351878,18.825353 14.7410084,18.1429571 L18.9445412,11.2494063 C18.980706,11.1992449 19.0001389,11.1386383 18.9999993,11.0764464 C18.9999807,11.0505372 18.9961794,11.0247744 18.9887196,11 C18.9784637,11.0361491 18.9619084,11.0701332 18.9398414,11.1003359 L18.9398414,11.1003359 Z" id="Path" fill="#212121" opacity="0.2"></path>
                <path d="M18.8537933,11 C18.9314598,11.1026969 18.9314598,11.2445013 18.8537933,11.3471982 L14.6354939,18.1534156 C14.3683769,18.5923234 13.922095,18.8918223 13.4147695,18.9726415 C12.907444,19.0534606 12.3902216,18.9074521 12,18.5732613 L15.925886,22.4999977 L24.2445762,22.4999977 C24.7095564,22.5007489 25.1557769,22.3166518 25.48501,21.9882322 C25.814243,21.6598125 25.9995001,21.2139923 26,20.748911 L26,18.1496417 L18.8537933,11 Z" id="Path" fill="url(#linearGradient-1)"></path>
                <path d="M25.9999997,1.77634094 C26.0002527,1.30547943 25.8138314,0.853802495 25.4817463,0.520673935 C25.1496612,0.187545374 24.6991151,0.000253355647 24.229223,0 L1.77173058,0 C1.30183848,-3.39474488e-16 0.851191944,0.187048996 0.518928055,0.519998344 C0.186664166,0.852947692 2.57120595e-07,1.30452392 2.57120596e-07,1.7753854 L2.57120596e-07,20.7236591 C-0.000252713046,21.1945206 0.18616863,21.6461975 0.518253705,21.9793261 C0.85033878,22.3124546 1.3008849,22.4997466 1.77077701,22.5 L24.2282694,22.5 C25.205653,22.5000013 25.9984216,21.7068798 25.9999997,20.7274812 L25.9999997,1.77634094 Z" id="Path" fill="url(#radialGradient-2)"></path>
            </g>
        </g>
    </g>
</svg>