<?xml version="1.0" encoding="UTF-8"?>
<svg width="26px" height="26px" viewBox="0 0 26 26" version="1.1" xmlns="http://www.w3.org/2000/svg" xmlns:xlink="http://www.w3.org/1999/xlink">
    <!-- Generator: Sketch 54.1 (76490) - https://sketchapp.com -->
    <title>Element/Icon Logo/GoogleSheets</title>
    <desc>Created with Sketch.</desc>
    <g id="Element/Icon-Logo/GoogleSheets" stroke="none" stroke-width="1" fill="none" fill-rule="evenodd">
        <g id="google-sheets-seeklogo.com" transform="translate(4.000000, 0.000000)">
            <path d="M18.5714286,24.4296825 C18.5714286,25.2544603 17.9025476,25.9234444 17.0777698,25.9234444 L1.49365873,25.9234444 C0.668880952,25.9234444 0,25.2544603 0,24.4296825 L0,1.57650794 C0,0.751730159 0.668880952,0.0828492063 1.49365873,0.0828492063 L11.5137698,0.0828492063 L18.5714286,7.3116746 L18.5714286,24.4296825" id="Fill-1" fill="#23A566"></path>
            <path d="M12.2917063,7.12823016 L18.5714286,13.1277302 L18.5529603,7.30238889 L18.5424365,7.30207937 L12.9949444,7.30207937 C12.7421667,7.30207937 12.5041429,7.23924603 12.2954206,7.12833333 L12.2917063,7.12823016" id="Fill-2" fill="#1C8F5A"></path>
            <path d="M18.5714286,7.30207937 L12.9949444,7.30207937 C12.1701667,7.30207937 11.5012857,6.63319841 11.5012857,5.80842063 L11.5012857,0.0765555556 L18.5714286,7.30207937" id="Fill-3" fill="#8ED1B1"></path>
            <path d="M4.45621429,21.1436746 L14.1152143,21.1436746 L14.1152143,12.7791032 L4.45621429,12.7791032 L4.45621429,21.1436746 Z M9.88299206,15.4677302 L12.920246,15.4677302 L12.920246,13.9740714 L9.88299206,13.9740714 L9.88299206,15.4677302 Z M9.88299206,17.7581032 L12.920246,17.7581032 L12.920246,16.3639048 L9.88299206,16.3639048 L9.88299206,17.7581032 Z M9.88299206,19.9487063 L12.920246,19.9487063 L12.920246,18.6542778 L9.88299206,18.6542778 L9.88299206,19.9487063 Z M5.65118254,19.9487063 L8.68812698,19.9487063 L8.68812698,18.6542778 L5.65118254,18.6542778 L5.65118254,19.9487063 Z M5.65118254,17.7581032 L8.68812698,17.7581032 L8.68812698,16.3639048 L5.65118254,16.3639048 L5.65118254,17.7581032 Z M5.65118254,15.4677302 L8.68812698,15.4677302 L8.68812698,13.9740714 L5.65118254,13.9740714 L5.65118254,15.4677302 Z" id="Fill-4" fill="#FFFFFF"></path>
        </g>
    </g>
</svg>