<?xml version="1.0" encoding="UTF-8"?>
<svg width="26px" height="26px" viewBox="0 0 26 26" version="1.1" xmlns="http://www.w3.org/2000/svg" xmlns:xlink="http://www.w3.org/1999/xlink">
    <!-- Generator: Sketch 54.1 (76490) - https://sketchapp.com -->
    <title>Element/Icon Logo/Google Search Console</title>
    <desc>Created with Sketch.</desc>
    <g id="Element/Icon-Logo/Google-Search-Console" stroke="none" stroke-width="1" fill="none" fill-rule="evenodd">
        <g id="8ae477e2-ab37-439c-a5d2-b9c9aa8798c9" transform="translate(0.000000, 1.000000)">
            <polygon id="Path" fill="#E6E7E8" points="0.423703704 11.5844444 25.5762963 11.5844444 25.5762963 23.2459259 0.423703704 23.2459259"></polygon>
            <polygon id="Path" fill="#D2D3D4" points="25.5762963 11.5748148 0.423703704 11.5748148 0.423703704 8.04074074 4.08296296 4.48740741 22.0325926 4.48740741 25.5762963 8.04074074"></polygon>
            <path d="M7.51111111,4.48740741 L9.34074074,4.48740741 L9.34074074,0.837777778 L7.51111111,2.65777778 L7.51111111,4.48740741 Z M16.6592593,4.48740741 L18.4888889,4.48740741 L18.4888889,2.65777778 L16.6592593,0.837777778 L16.6592593,4.48740741 Z" id="Shape" fill="#7C7C7C" fill-rule="nonzero"></path>
            <polygon id="Path" fill="#5A5A5A" points="9.34074074 0.837777778 16.6592593 0.837777778 16.6592593 2.66740741 9.34074074 2.66740741"></polygon>
            <rect id="Rectangle" fill="#5778FF" x="3.34148148" y="8.03111111" width="19.3266667" height="7.20296296" rx="2.05714286"></rect>
            <polygon id="Path" fill="#FFFFFF" points="3.34148148 11.5844444 22.6681481 11.5844444 22.6681481 23.2459259 3.34148148 23.2459259"></polygon>
            <circle id="Oval" fill="#FFFFFF" cx="5.13259259" cy="9.75481481" r="1"></circle>
            <circle id="Oval" fill="#FFFFFF" cx="7.49185185" cy="9.75481481" r="1"></circle>
            <path d="M4.65111111,21.6377778 L13.2214815,21.6377778 L13.2214815,23.2362963 L4.65111111,23.2362963 L4.65111111,21.6377778 Z M4.65111111,12.9518519 L11.0548148,12.9518519 L11.0548148,20.2703704 L4.65111111,20.2703704 L4.65111111,12.9518519 Z" id="Shape" fill="#D2D3D4" fill-rule="nonzero"></path>
            <polygon id="Path" fill="#BDBDBD" points="20.5496296 14.0977778 18.0266667 19.24 18.9414815 23.2459259 22.6681481 23.2459259 22.6681481 16.6688889"></polygon>
            <polygon id="Path" fill="#4F4F4F" points="15.1762963 19.4711111 18.9511111 19.4711111 18.9511111 23.2459259 15.1762963 23.2459259"></polygon>
            <polygon id="Path" fill="#BDBDBD" points="18.9414815 18.0940741 15.1762963 18.0940741 15.1762963 12.8362963 18.9414815 16.7266667"></polygon>
            <path d="M18.9414815,12.7977778 L18.9414815,16.7266667 L17.0155556,17.8725926 L15.0896296,16.7266667 L15.0896296,12.8748148 C13.3484199,13.777281 12.4565414,15.7587895 12.9355534,17.6605793 C13.4145654,19.562369 15.1386665,20.8849794 17.0996244,20.8549647 C19.0605822,20.8249501 20.7433971,19.450193 21.1639803,17.5346339 C21.5845635,15.6190749 20.6324585,13.6657907 18.8644444,12.817037 L18.9414815,12.7977778 Z" id="Path" fill="#4F4F4F"></path>
        </g>
    </g>
</svg>