<?xml version="1.0" encoding="UTF-8"?>
<svg width="26px" height="26px" viewBox="0 0 26 26" version="1.1" xmlns="http://www.w3.org/2000/svg" xmlns:xlink="http://www.w3.org/1999/xlink">
    <!-- Generator: Sketch 54.1 (76490) - https://sketchapp.com -->
    <title>Element/Icon Logo/GetResponse</title>
    <desc>Created with Sketch.</desc>
    <g id="Element/Icon-Logo/GetResponse" stroke="none" stroke-width="1" fill="none" fill-rule="evenodd">
        <g id="getresponse-logo" transform="translate(0.000000, 5.000000)" fill-rule="nonzero">
            <g id="Group-10">
                <g id="#00aeefff" fill="#00AEEF">
                    <path d="M0.113537118,1.24209607 C0.076069869,0.631266376 0.633537118,0.0749344978 1.24436681,0.113537118 C9.11816594,0.114672489 16.9919651,0.110131004 24.8657642,0.116943231 C25.2222707,0.103318777 25.489083,0.362183406 25.7808734,0.523406114 C25.8069869,0.646026201 25.8455895,0.765240175 25.8955459,0.881048035 C25.7751965,0.79930131 25.6559825,0.716419214 25.5379039,0.633537118 C25.3664629,1.08427948 25.0474236,1.45213974 24.779476,1.84724891 C23.0571179,4.21676856 20.9862009,6.39213974 18.4645415,7.9180786 C16.5525764,9.06707424 14.2897817,9.78462882 12.0440175,9.47580786 C10.0457642,9.25781659 8.10995633,8.37222707 6.70323144,6.92462882 C5.48157205,5.73135371 4.65161572,4.16113537 4.28829694,2.49554585 C3.82165939,2.49441048 3.26646288,2.40925764 2.92471616,2.80663755 C2.48419214,3.19834061 2.56253275,3.83982533 2.66471616,4.35868996 C3.16427948,7.14829694 4.829869,9.73353712 7.22550218,11.2651528 C9.21353712,12.5662882 11.6466376,13.2543231 14.0229694,12.9829694 C16.1801747,12.7729258 18.2170306,11.8351092 19.9257642,10.5248908 C22.3066376,8.71510917 24.1243668,6.27746725 25.6423581,3.72742358 C25.7536245,3.51851528 25.9227948,3.31982533 25.9171179,3.07117904 C25.920524,2.37860262 25.929607,1.6860262 25.9034934,0.993449782 C26.009083,2.01755459 25.9148472,3.0530131 25.920524,4.08165939 C25.9227948,7.86812227 25.9216594,11.6557205 25.9216594,15.4433188 C25.9534498,16.0677729 25.3800873,16.6184279 24.7601747,16.5752838 C16.9215721,16.5764192 9.08183406,16.57869 1.24323144,16.5741485 C0.63580786,16.6048035 0.0783406114,16.0575546 0.113537118,15.4478603 C0.113537118,10.7122271 0.113537118,5.97772926 0.113537118,1.24209607 Z" id="Path"></path>
                </g>
                <g id="#ffffffff" transform="translate(2.497817, 0.567686)" fill="#FFFFFF">
                    <path d="M23.0400873,0.0658515284 C23.1581659,0.148733624 23.2773799,0.231615721 23.3977293,0.313362445 L23.4056769,0.425764192 C23.4317904,1.11834061 23.4227074,1.81091703 23.4193013,2.50349345 C23.4249782,2.75213974 23.2558079,2.95082969 23.1445415,3.15973799 C21.6265502,5.70978166 19.808821,8.14742358 17.4279476,9.95720524 C15.719214,11.2674236 13.6823581,12.2052402 11.5251528,12.4152838 C9.14882096,12.6866376 6.71572052,11.9986026 4.72768559,10.6974672 C2.3320524,9.16585153 0.666462882,6.58061135 0.166899563,3.79100437 C0.0647161572,3.27213974 -0.0136244541,2.63065502 0.426899563,2.23895197 C0.768646288,1.84157205 1.32384279,1.92672489 1.79048035,1.92786026 C2.15379913,3.59344978 2.98375546,5.16366812 4.20541485,6.35694323 C5.61213974,7.80454148 7.5479476,8.690131 9.54620087,8.90812227 C11.7919651,9.21694323 14.0547598,8.49938865 15.9667249,7.35039301 C18.4883843,5.82445415 20.5593013,3.64908297 22.2816594,1.27956332 C22.549607,0.884454148 22.8686463,0.516593886 23.0400873,0.0658515284 Z" id="Path"></path>
                </g>
            </g>
        </g>
    </g>
</svg>