<?xml version="1.0" encoding="UTF-8"?>
<svg width="26px" height="26px" viewBox="0 0 26 26" version="1.1" xmlns="http://www.w3.org/2000/svg" xmlns:xlink="http://www.w3.org/1999/xlink">
    <!-- Generator: Sketch 54.1 (76490) - https://sketchapp.com -->
    <title>Element/Icon Logo/hubspot</title>
    <desc>Created with Sketch.</desc>
    <g id="Element/Icon-Logo/hubspot" stroke="none" stroke-width="1" fill="none" fill-rule="evenodd">
        <path d="M23.5500468,12.350368 C22.9741715,11.3595653 22.1641257,10.5652606 21.1513917,9.96727704 C20.3945825,9.52670412 19.6098286,9.24707915 18.7254992,9.12698721 L18.7254992,5.97877443 C19.6098286,5.60328815 20.1586434,4.77219535 20.1586434,3.80261656 C20.1586434,2.48107466 19.098863,1.41015171 17.7783823,1.41015171 C16.4568404,1.41015171 15.3784891,2.48107466 15.3784891,3.80261656 C15.3784891,4.77219535 15.895645,5.60328815 16.7799744,5.97877443 L16.7799744,9.12840214 C16.0725109,9.23063062 15.3388712,9.45118238 14.6689032,9.79005742 C13.3004918,8.75079347 8.81340427,5.34134978 6.18853765,3.35001676 C6.25079444,3.12557395 6.2987251,2.89423337 6.2987251,2.65015845 C6.2987251,1.18641637 5.11336993,0 3.64909725,0 C2.18482457,0 1,1.18641637 1,2.65015845 C1,4.11372366 2.18606264,5.30049376 3.65033531,5.30049376 C4.14980457,5.30049376 4.61177827,5.15440253 5.01043398,4.91421866 L5.56437794,5.33445201 L13.1759782,10.8187094 C12.7736083,11.1881823 12.3988295,11.6084156 12.0990418,12.0799401 C11.4915075,13.0412061 11.120266,14.0988642 11.120266,15.2525603 L11.120266,15.4932748 C11.120266,16.3031437 11.2741394,17.0677349 11.5362546,17.7859873 C11.7670646,18.4131537 12.1045247,18.9833693 12.5224588,19.4989334 L9.99628332,22.0312992 C9.24855935,21.7529963 8.40717487,21.9375116 7.84453295,22.5031774 C7.45925991,22.8865539 7.24347067,23.4081931 7.24531132,23.951709 C7.24548819,24.4987552 7.45861158,25.0129043 7.84559414,25.39971 C8.22872037,25.7852683 8.7502292,26.0014384 9.29377202,25.9999928 C9.83745963,26.0013829 10.3591128,25.7852321 10.7424805,25.39971 C11.1275019,25.0163536 11.3433653,24.4950338 11.3420559,23.951709 C11.3420559,23.7400005 11.3093357,23.5334211 11.2477863,23.3371 L13.8588574,20.7256752 C14.216834,20.9729337 14.6034628,21.1811048 15.0190976,21.3606237 C15.838871,21.715063 16.7437169,21.9310162 17.733989,21.9310162 L17.9154534,21.9310162 C19.0102532,21.9310162 20.0429731,21.6738532 21.01379,21.1478541 C22.0367823,20.5919646 22.8374542,19.831795 23.4423355,18.8613319 C24.0504004,17.8882158 24.3852075,16.813048 24.3852075,15.630169 L24.3852075,15.5710958 C24.3852075,14.4074951 24.1158408,13.3339192 23.5500468,12.350368 L23.5500468,12.350368 Z M20.3597399,17.8284351 C19.6510383,18.6160189 18.8363941,19.101162 17.9154534,19.101162 L17.7637025,19.101162 C17.2377033,19.101162 16.7232005,18.9557783 16.2194864,18.6913638 C15.6517469,18.4002425 15.2201941,17.9849614 14.866993,17.4591391 C14.5019418,16.9430445 14.303852,16.3795498 14.303852,15.7820968 L14.303852,15.6006324 C14.303852,15.0132608 14.4165156,14.4563101 14.7005622,13.930311 C15.0042409,13.35532 15.4143929,12.908203 15.9598473,12.5527026 C16.4953972,12.1996783 17.0673815,12.0265266 17.7044524,12.0265266 L17.7637025,12.0265266 C18.3413465,12.0265266 18.8882158,12.1404282 19.4043104,12.404489 C19.9301327,12.6860594 20.3597399,13.0707428 20.6927784,13.5767561 C21.0162661,14.0829462 21.2086962,14.6289312 21.2705993,15.2237312 C21.2803269,15.3473604 21.2852791,15.4739964 21.2852791,15.5949727 C21.2852791,16.4021886 20.976825,17.1498007 20.3597399,17.8284351 Z" id="Shape" fill="#F8761F" fill-rule="nonzero"></path>
    </g>
</svg>