<?xml version="1.0" encoding="UTF-8"?>
<svg width="26px" height="26px" viewBox="0 0 26 26" version="1.1" xmlns="http://www.w3.org/2000/svg" xmlns:xlink="http://www.w3.org/1999/xlink">
    <!-- Generator: Sketch 54.1 (76490) - https://sketchapp.com -->
    <title>Element/Icon Logo/Insta Ads</title>
    <desc>Created with Sketch.</desc>
    <defs>
        <linearGradient x1="1.42773844%" y1="69.2378176%" x2="83.4281549%" y2="-12.7625989%" id="linearGradient-1">
            <stop stop-color="#DE993D" offset="0%"></stop>
            <stop stop-color="#C54C4D" offset="30%"></stop>
            <stop stop-color="#C01C75" offset="60%"></stop>
            <stop stop-color="#7025C2" offset="100%"></stop>
        </linearGradient>
        <linearGradient x1="-9877.21417%" y1="-4882.76973%" x2="-9877.21417%" y2="-5073.91304%" id="linearGradient-2">
            <stop stop-color="#DE993D" offset="0%"></stop>
            <stop stop-color="#C54C4D" offset="30%"></stop>
            <stop stop-color="#C01C75" offset="60%"></stop>
            <stop stop-color="#7025C2" offset="100%"></stop>
        </linearGradient>
        <linearGradient x1="134.395973%" y1="909.899329%" x2="134.395973%" y2="115.151007%" id="linearGradient-3">
            <stop stop-color="#DE993D" offset="0%"></stop>
            <stop stop-color="#C54C4D" offset="30%"></stop>
            <stop stop-color="#C01C75" offset="60%"></stop>
            <stop stop-color="#7025C2" offset="100%"></stop>
        </linearGradient>
    </defs>
    <g id="Element/Icon-Logo/Insta-Ads" stroke="none" stroke-width="1" fill="none" fill-rule="evenodd">
        <path d="M15.304,25.208 C15.229333,24.9893322 15.1520004,24.7733344 15.072,24.56 C14.9919996,24.3466656 14.914667,24.1280011 14.84,23.904 L12.504,23.904 C12.429333,24.1280011 12.3533337,24.3479989 12.276,24.564 C12.1986663,24.7800011 12.122667,24.9946656 12.048,25.208 L11,25.208 C11.208001,24.615997 11.4053324,24.0693358 11.592,23.568 C11.7786676,23.0666642 11.9613324,22.5920022 12.14,22.144 C12.3186676,21.6959978 12.4959991,21.2693354 12.672,20.864 C12.8480009,20.4586646 13.0293324,20.0586686 13.216,19.664 L14.168,19.664 C14.3546676,20.0586686 14.5359991,20.4586646 14.712,20.864 C14.8880009,21.2693354 15.0653324,21.6959978 15.244,22.144 C15.4226676,22.5920022 15.6066657,23.0666642 15.796,23.568 C15.9853343,24.0693358 16.183999,24.615997 16.392,25.208 L15.304,25.208 Z M13.672,20.736 C13.5493327,21.0186681 13.4093341,21.3626646 13.252,21.768 C13.0946659,22.1733354 12.9306675,22.613331 12.76,23.088 L14.584,23.088 C14.4133325,22.613331 14.2480008,22.1706687 14.088,21.76 C13.9279992,21.3493313 13.7893339,21.0080014 13.672,20.736 Z M17.696,23.104 C17.696,23.5306688 17.7973323,23.8653321 18,24.108 C18.2026677,24.3506679 18.4826649,24.472 18.84,24.472 C18.9946674,24.472 19.1266661,24.4653334 19.236,24.452 C19.3453339,24.4386666 19.4346663,24.4240001 19.504,24.408 L19.504,22.008 C19.4186662,21.949333 19.305334,21.8946669 19.164,21.844 C19.022666,21.7933331 18.8720008,21.768 18.712,21.768 C18.3599982,21.768 18.1026675,21.8879988 17.94,22.128 C17.7773325,22.3680012 17.696,22.6933313 17.696,23.104 Z M20.472,25.08 C20.279999,25.138667 20.0386681,25.1919998 19.748,25.24 C19.4573319,25.2880002 19.1520016,25.312 18.832,25.312 C18.5013317,25.312 18.2053346,25.2613338 17.944,25.16 C17.6826654,25.0586662 17.4600009,24.9133343 17.276,24.724 C17.0919991,24.5346657 16.9506672,24.3053347 16.852,24.036 C16.7533328,23.7666653 16.704,23.4640017 16.704,23.128 C16.704,22.7973317 16.7453329,22.4973347 16.828,22.228 C16.9106671,21.9586653 17.0319992,21.728001 17.192,21.536 C17.3520008,21.343999 17.5466655,21.1960005 17.776,21.092 C18.0053345,20.9879995 18.2693318,20.936 18.568,20.936 C18.7706677,20.936 18.9493326,20.9599998 19.104,21.008 C19.2586674,21.0560002 19.3919994,21.109333 19.504,21.168 L19.504,19.16 L20.472,19 L20.472,25.08 Z M22.752,24.512 C23.0080013,24.512 23.1946661,24.4813336 23.312,24.42 C23.4293339,24.3586664 23.488,24.2533341 23.488,24.104 C23.488,23.9653326 23.425334,23.8506671 23.3,23.76 C23.174666,23.6693329 22.9680014,23.5706672 22.68,23.464 C22.5039991,23.3999997 22.3426674,23.3320004 22.196,23.26 C22.0493326,23.1879996 21.9226672,23.1040005 21.816,23.008 C21.7093328,22.9119995 21.6253336,22.7960007 21.564,22.66 C21.5026664,22.5239993 21.472,22.3573343 21.472,22.16 C21.472,21.7759981 21.6133319,21.4733344 21.896,21.252 C22.1786681,21.0306656 22.5626642,20.92 23.048,20.92 C23.2933346,20.92 23.5279989,20.9426664 23.752,20.988 C23.9760011,21.0333336 24.1439994,21.0773331 24.256,21.12 L24.08,21.904 C23.9733328,21.8559998 23.8373342,21.8120002 23.672,21.772 C23.5066658,21.7319998 23.3146678,21.712 23.096,21.712 C22.8986657,21.712 22.7386673,21.745333 22.616,21.812 C22.4933327,21.878667 22.432,21.9813326 22.432,22.12 C22.432,22.1893337 22.4439999,22.2506664 22.468,22.304 C22.4920001,22.3573336 22.533333,22.4066664 22.592,22.452 C22.650667,22.4973336 22.7279995,22.5426664 22.824,22.588 C22.9200005,22.6333336 23.0373326,22.6799998 23.176,22.728 C23.4053345,22.8133338 23.5999992,22.8973329 23.76,22.98 C23.9200008,23.0626671 24.0519995,23.1559995 24.156,23.26 C24.2600005,23.3640005 24.3359998,23.482666 24.384,23.616 C24.4320002,23.749334 24.456,23.9093324 24.456,24.096 C24.456,24.496002 24.3080015,24.7986656 24.012,25.004 C23.7159985,25.2093344 23.2933361,25.312 22.744,25.312 C22.3759982,25.312 22.0800011,25.2813336 21.856,25.22 C21.6319989,25.1586664 21.4746671,25.1093335 21.384,25.072 L21.552,24.264 C21.6960007,24.322667 21.867999,24.3786664 22.068,24.432 C22.268001,24.4853336 22.4959987,24.512 22.752,24.512 Z" id="Ads" fill="#505D68" fill-rule="nonzero"></path>
        <g id="e1914645-34e1-4442-9be4-656d231422fe">
            <path d="M15.268,0.4312 L6.732,0.4312 C3.25903408,0.436047133 0.444847133,3.25023408 0.44,6.7232 L0.44,15.268 C0.444847133,18.7409659 3.25903408,21.5551529 6.732,21.56 L15.2768,21.56 C18.7497659,21.5551529 21.5639529,18.7409659 21.5688,15.268 L21.5688,6.732 C21.5688,3.25216425 18.7478358,0.4312 15.268,0.4312 Z M19.4392,15.268 C19.4392,17.5716901 17.5716901,19.4392 15.268,19.4392 L6.732,19.4392 C4.42830985,19.4392 2.5608,17.5716901 2.5608,15.268 L2.5608,6.732 C2.5608,4.42830985 4.42830985,2.5608 6.732,2.5608 L15.2768,2.5608 C17.5804901,2.5608 19.448,4.42830985 19.448,6.732 L19.448,15.2768 L19.4392,15.268 Z" id="Shape" fill="url(#linearGradient-1)" fill-rule="nonzero"></path>
            <path d="M11,5.5352 C7.9818743,5.5352 5.5352,7.9818743 5.5352,11 C5.5352,14.0181257 7.9818743,16.4648 11,16.4648 C14.0181257,16.4648 16.4648,14.0181257 16.4648,11 C16.4599548,7.98388352 14.0161165,5.54004518 11,5.5352 Z M11,14.3352 C9.1580199,14.3352 7.6648,12.8419801 7.6648,11 C7.6648,9.1580199 9.1580199,7.6648 11,7.6648 C12.8419801,7.6648 14.3352,9.1580199 14.3352,11 C14.3352,12.8419801 12.8419801,14.3352 11,14.3352 Z" id="Shape" fill="url(#linearGradient-2)" fill-rule="nonzero"></path>
            <circle id="Oval" fill="url(#linearGradient-3)" cx="16.4736" cy="5.5792" r="1.3112"></circle>
        </g>
    </g>
</svg>