<?xml version="1.0" encoding="UTF-8"?>
<svg width="26px" height="26px" viewBox="0 0 26 26" version="1.1" xmlns="http://www.w3.org/2000/svg" xmlns:xlink="http://www.w3.org/1999/xlink">
    <!-- Generator: Sketch 60.1 (88133) - https://sketch.com -->
    <title>klyvio logo</title>
    <desc>Created with Sketch.</desc>
    <defs>
        <linearGradient x1="49.9999746%" y1="100.000178%" x2="49.9999746%" y2="-1.78470721e-05%" id="linearGradient-1">
            <stop stop-color="#F0C21A" offset="0%"></stop>
            <stop stop-color="#93C94B" offset="33.14%"></stop>
            <stop stop-color="#70C05A" offset="48.59%"></stop>
            <stop stop-color="#12B259" offset="75.06%"></stop>
            <stop stop-color="#22AD69" offset="90.3%"></stop>
            <stop stop-color="#22AD69" offset="100%"></stop>
        </linearGradient>
    </defs>
    <g id="klyvio-logo" stroke="none" stroke-width="1" fill="none" fill-rule="evenodd">
        <g id="logo-(1)" transform="translate(0.000000, 4.000000)" fill="url(#linearGradient-1)" fill-rule="nonzero">
            <path d="M0.526310793,7.69812457 L12.1829904,0.213840653 C12.6426426,-0.0712802177 13.3596782,-0.0712802177 13.8193303,0.213840653 L25.47601,7.69812457 C26.1746633,8.14362207 26.1746633,8.87424044 25.47601,9.31970707 L23.9131991,10.3175992 C21.6149704,6.80709869 17.5700763,4.49053021 12.9919692,4.49053021 C8.3954799,4.49053021 4.36896811,6.82491488 2.07073937,10.3175992 L0.507928532,9.31970707 C-0.172342588,8.87424044 -0.172342588,8.12580587 0.526310793,7.69812457 Z M12.9919692,7.60901272 C9.51702088,7.60901272 6.48334238,9.39097184 4.75509118,12.0282936 L7.439443,13.7568041 C8.57933438,11.9392126 10.6201796,10.7274643 12.973587,10.7274643 C15.3086121,10.7274643 17.3678077,11.9392126 18.5077628,13.7568041 L21.1921146,12.0282936 C19.5189784,9.39100272 16.4669176,7.60901272 12.9919692,7.60901272 Z M12.9919692,13.8637631 C11.7784851,13.8637631 10.7121228,14.5230858 10.1421452,15.4853455 L11.9439573,16.6257982 C12.2381372,16.8574704 12.5874639,17 12.9919692,17 C13.3964746,17 13.7641835,16.8574396 14.0399812,16.6257982 L15.8417933,15.4853455 C15.3085803,14.540902 14.2238038,13.8637631 12.9919692,13.8637631 Z" id="Shape"></path>
        </g>
    </g>
</svg>