<?xml version="1.0" encoding="UTF-8"?>
<svg width="26px" height="26px" viewBox="0 0 26 26" version="1.1" xmlns="http://www.w3.org/2000/svg" xmlns:xlink="http://www.w3.org/1999/xlink">
    <!-- Generator: Sketch 54.1 (76490) - https://sketchapp.com -->
    <title>Element/Icon Logo/LinkedIn</title>
    <desc>Created with Sketch.</desc>
    <g id="Element/Icon-Logo/LinkedIn" stroke="none" stroke-width="1" fill="none" fill-rule="evenodd">
        <g id="9a61b0f5-9899-45ed-86f8-9265d8a85797-(3)">
            <path d="M24.0897959,0.0675324675 L2.33469388,0.0675324675 C1.27346939,0.0675324675 0.424489796,0.931948052 0.424489796,1.90441558 L0.424489796,24.1631169 C0.424489796,25.2436364 1.27346939,26 2.33469388,26 L24.0897959,26 C25.1510204,26 26,25.1355844 26,24.1631169 L26,1.90441558 C26,0.823896104 25.1510204,0.0675324675 24.0897959,0.0675324675 Z" id="Path" fill="#007BB5"></path>
            <path d="M4.24489796,9.79220779 L8.06530612,9.79220779 L8.06530612,22.2181818 L4.24489796,22.2181818 L4.24489796,9.79220779 Z M6.15510204,3.63324675 C7.32244898,3.63324675 8.38367347,4.60571429 8.38367347,5.90233766 C8.38367347,7.09090909 7.42857143,8.17142857 6.15510204,8.17142857 C4.9877551,8.17142857 3.92653061,7.19896104 3.92653061,5.90233766 C4.03265306,4.60571429 4.9877551,3.63324675 6.15510204,3.63324675 L6.15510204,3.63324675 Z M10.4,9.79220779 L14.0081633,9.79220779 L14.0081633,11.521039 C14.5387755,10.5485714 15.7061224,9.46805195 17.6163265,9.46805195 C21.4367347,9.46805195 22.1795918,12.0612987 22.1795918,15.4109091 L22.1795918,22.2181818 L18.3591837,22.2181818 L18.3591837,16.1672727 C18.3591837,14.7625974 18.3591837,12.9257143 16.3428571,12.9257143 C14.3265306,12.9257143 14.1142857,14.4384416 14.1142857,16.0592208 L14.1142857,22.2181818 L10.2938776,22.2181818 L10.2938776,9.79220779 L10.4,9.79220779 Z" id="Shape" fill="#FFFFFF" fill-rule="nonzero"></path>
        </g>
    </g>
</svg>