<?xml version="1.0" encoding="UTF-8"?>
<svg width="26px" height="26px" viewBox="0 0 26 26" version="1.1" xmlns="http://www.w3.org/2000/svg" xmlns:xlink="http://www.w3.org/1999/xlink">
    <!-- Generator: Sketch 54.1 (76490) - https://sketchapp.com -->
    <title>Element/Icon Logo/LinkedIn Ads</title>
    <desc>Created with Sketch.</desc>
    <g id="Element/Icon-Logo/LinkedIn-Ads" stroke="none" stroke-width="1" fill="none" fill-rule="evenodd">
        <g id="9a61b0f5-9899-45ed-86f8-9265d8a85797-(3)">
            <path d="M20.3568465,0 L1.64315353,0 C0.730290456,0 0,0.733333333 0,1.55833333 L0,20.4416667 C0,21.3583333 0.730290456,22 1.64315353,22 L20.3568465,22 C21.2697095,22 22,21.2666667 22,20.4416667 L22,1.55833333 C22,0.641666667 21.2697095,0 20.3568465,0 Z" id="Path" fill="#007BB5"></path>
            <path d="M4.26162791,7.97093023 L7.40116279,7.97093023 L7.40116279,18 L4.26162791,18 L4.26162791,7.97093023 Z M5.83139535,3 C6.79069767,3 7.6627907,3.78488372 7.6627907,4.83139535 C7.6627907,5.79069767 6.87790698,6.6627907 5.83139535,6.6627907 C4.87209302,6.6627907 4,5.87790698 4,4.83139535 C4.0872093,3.78488372 4.87209302,3 5.83139535,3 L5.83139535,3 Z M9.31976744,7.97093023 L12.2848837,7.97093023 L12.2848837,9.36627907 C12.7209302,8.58139535 13.6802326,7.70930233 15.25,7.70930233 C18.3895349,7.70930233 19,9.80232558 19,12.505814 L19,18 L15.8604651,18 L15.8604651,13.1162791 C15.8604651,11.9825581 15.8604651,10.5 14.2034884,10.5 C12.5465116,10.5 12.372093,11.7209302 12.372093,13.0290698 L12.372093,18 L9.23255814,18 L9.23255814,7.97093023 L9.31976744,7.97093023 Z" id="Shape" fill="#FFFFFF" fill-rule="nonzero"></path>
        </g>
        <path d="M17.304,26.208 C17.229333,25.9893322 17.1520004,25.7733344 17.072,25.56 C16.9919996,25.3466656 16.914667,25.1280011 16.84,24.904 L14.504,24.904 C14.429333,25.1280011 14.3533337,25.3479989 14.276,25.564 C14.1986663,25.7800011 14.122667,25.9946656 14.048,26.208 L13,26.208 C13.208001,25.615997 13.4053324,25.0693358 13.592,24.568 C13.7786676,24.0666642 13.9613324,23.5920022 14.14,23.144 C14.3186676,22.6959978 14.4959991,22.2693354 14.672,21.864 C14.8480009,21.4586646 15.0293324,21.0586686 15.216,20.664 L16.168,20.664 C16.3546676,21.0586686 16.5359991,21.4586646 16.712,21.864 C16.8880009,22.2693354 17.0653324,22.6959978 17.244,23.144 C17.4226676,23.5920022 17.6066657,24.0666642 17.796,24.568 C17.9853343,25.0693358 18.183999,25.615997 18.392,26.208 L17.304,26.208 Z M15.672,21.736 C15.5493327,22.0186681 15.4093341,22.3626646 15.252,22.768 C15.0946659,23.1733354 14.9306675,23.613331 14.76,24.088 L16.584,24.088 C16.4133325,23.613331 16.2480008,23.1706687 16.088,22.76 C15.9279992,22.3493313 15.7893339,22.0080014 15.672,21.736 Z M19.696,24.104 C19.696,24.5306688 19.7973323,24.8653321 20,25.108 C20.2026677,25.3506679 20.4826649,25.472 20.84,25.472 C20.9946674,25.472 21.1266661,25.4653334 21.236,25.452 C21.3453339,25.4386666 21.4346663,25.4240001 21.504,25.408 L21.504,23.008 C21.4186662,22.949333 21.305334,22.8946669 21.164,22.844 C21.022666,22.7933331 20.8720008,22.768 20.712,22.768 C20.3599982,22.768 20.1026675,22.8879988 19.94,23.128 C19.7773325,23.3680012 19.696,23.6933313 19.696,24.104 Z M22.472,26.08 C22.279999,26.138667 22.0386681,26.1919998 21.748,26.24 C21.4573319,26.2880002 21.1520016,26.312 20.832,26.312 C20.5013317,26.312 20.2053346,26.2613338 19.944,26.16 C19.6826654,26.0586662 19.4600009,25.9133343 19.276,25.724 C19.0919991,25.5346657 18.9506672,25.3053347 18.852,25.036 C18.7533328,24.7666653 18.704,24.4640017 18.704,24.128 C18.704,23.7973317 18.7453329,23.4973347 18.828,23.228 C18.9106671,22.9586653 19.0319992,22.728001 19.192,22.536 C19.3520008,22.343999 19.5466655,22.1960005 19.776,22.092 C20.0053345,21.9879995 20.2693318,21.936 20.568,21.936 C20.7706677,21.936 20.9493326,21.9599998 21.104,22.008 C21.2586674,22.0560002 21.3919994,22.109333 21.504,22.168 L21.504,20.16 L22.472,20 L22.472,26.08 Z M24.752,25.512 C25.0080013,25.512 25.1946661,25.4813336 25.312,25.42 C25.4293339,25.3586664 25.488,25.2533341 25.488,25.104 C25.488,24.9653326 25.425334,24.8506671 25.3,24.76 C25.174666,24.6693329 24.9680014,24.5706672 24.68,24.464 C24.5039991,24.3999997 24.3426674,24.3320004 24.196,24.26 C24.0493326,24.1879996 23.9226672,24.1040005 23.816,24.008 C23.7093328,23.9119995 23.6253336,23.7960007 23.564,23.66 C23.5026664,23.5239993 23.472,23.3573343 23.472,23.16 C23.472,22.7759981 23.6133319,22.4733344 23.896,22.252 C24.1786681,22.0306656 24.5626642,21.92 25.048,21.92 C25.2933346,21.92 25.5279989,21.9426664 25.752,21.988 C25.9760011,22.0333336 26.1439994,22.0773331 26.256,22.12 L26.08,22.904 C25.9733328,22.8559998 25.8373342,22.8120002 25.672,22.772 C25.5066658,22.7319998 25.3146678,22.712 25.096,22.712 C24.8986657,22.712 24.7386673,22.745333 24.616,22.812 C24.4933327,22.878667 24.432,22.9813326 24.432,23.12 C24.432,23.1893337 24.4439999,23.2506664 24.468,23.304 C24.4920001,23.3573336 24.533333,23.4066664 24.592,23.452 C24.650667,23.4973336 24.7279995,23.5426664 24.824,23.588 C24.9200005,23.6333336 25.0373326,23.6799998 25.176,23.728 C25.4053345,23.8133338 25.5999992,23.8973329 25.76,23.98 C25.9200008,24.0626671 26.0519995,24.1559995 26.156,24.26 C26.2600005,24.3640005 26.3359998,24.482666 26.384,24.616 C26.4320002,24.749334 26.456,24.9093324 26.456,25.096 C26.456,25.496002 26.3080015,25.7986656 26.012,26.004 C25.7159985,26.2093344 25.2933361,26.312 24.744,26.312 C24.3759982,26.312 24.0800011,26.2813336 23.856,26.22 C23.6319989,26.1586664 23.4746671,26.1093335 23.384,26.072 L23.552,25.264 C23.6960007,25.322667 23.867999,25.3786664 24.068,25.432 C24.268001,25.4853336 24.4959987,25.512 24.752,25.512 Z" id="Ads" fill="#505D68" fill-rule="nonzero"></path>
    </g>
</svg>