<?xml version="1.0" encoding="UTF-8"?>
<svg width="26px" height="26px" viewBox="0 0 26 26" version="1.1" xmlns="http://www.w3.org/2000/svg" xmlns:xlink="http://www.w3.org/1999/xlink">
    <!-- Generator: Sketch 54.1 (76490) - https://sketchapp.com -->
    <title>Element/Icon Logo/Mailchimp</title>
    <desc>Created with Sketch.</desc>
    <g id="Element/Icon-Logo/Mailchimp" stroke="none" stroke-width="1" fill="none" fill-rule="evenodd">
        <g id="12387eb4-04d7-4f68-b00c-99bbce2ce18c" transform="translate(1.000000, 0.000000)">
            <path d="M23.5348148,18.2962963 C23.5348148,18.3637037 21.6859259,25.3837037 14.5022222,25.3837037 C8.29111111,25.3837037 5.35407407,19.9814815 5.35407407,19.9814815 C4.9153101,20.0061122 4.47615302,19.9405664 4.0637037,19.7888889 C2.26600397,19.0962947 1.34766432,17.0973042 1.99333333,15.2822222 L1.03037037,14.5214815 C-2.88888889,11.5555556 8.09851852,-1.92592593 11.9792593,1.14592593 L12.9422222,1.88740741 C14.0903398,1.12312818 15.4180387,0.671710581 16.7940741,0.577777778 C17.5082287,0.53024534 18.208774,0.789447085 18.72,1.29037037 C19.682963,2.37851852 19.3651852,4.46814815 17.9881481,6.57703704 C18.2872478,6.87723584 18.5287717,7.22973022 18.7007407,7.61703704 C19.1728629,8.01175602 19.4816917,8.56764782 19.5674074,9.17703704 C19.7214815,9.96666667 19.76,11.102963 19.8562963,11.5748148 C20.2318519,11.7385185 20.0681481,11.6614815 20.462963,11.8637037 C21.0034144,12.1019897 21.5011301,12.4272941 21.9362963,12.8266667 C22.3726932,12.9005267 22.7384594,13.1976919 22.9001153,13.6097173 C23.0617712,14.0217427 22.9956669,14.4883499 22.7259259,14.8392593 L22.5718519,15.0222222 C22.731257,15.3256895 22.8479181,15.6497482 22.9185185,15.9851852 C23.3147681,16.0687616 23.6494364,16.3322239 23.8237037,16.6977778 C23.9678212,17.2471482 23.8621035,17.8321197 23.5348148,18.2962963 L23.5348148,18.2962963 Z" id="Path" fill="#6A4C46"></path>
            <path d="M6.81777778,15.6866667 C6.90958937,15.4509062 6.98677292,15.2097075 7.04888889,14.9644444 C7.23301758,15.5128657 7.31144093,16.0912379 7.28,16.6688889 C7.39994765,16.4893723 7.50309971,16.2991857 7.58814815,16.1007407 C7.73536489,16.8515008 7.54572123,17.6290469 7.06937731,18.2277203 C6.59303339,18.8263938 5.87797518,19.1858856 5.11333333,19.2111111 C3.7153375,19.1266936 2.62480192,17.9683201 2.62480192,16.5677778 C2.62480192,15.1672355 3.7153375,14.0088619 5.11333333,13.9244444 C5.46247579,13.9237766 5.80755215,13.9993648 6.12444444,14.1459259 C6.12444444,14.1459259 6.6637037,14.4444444 6.81777778,15.6866667 L6.81777778,15.6866667 Z M20.4918519,21.4644444 C21.6254045,20.6077219 22.441831,19.3983266 22.8125926,18.0266667 C23.2940741,17.4488889 23.1592593,16.8807407 22.5237037,16.8807407 C22.4026839,16.8816842 22.2825236,16.9011696 22.1674074,16.9385185 C22.1581707,16.4176204 22.0262028,15.906245 21.7822222,15.4459259 C21.1374003,16.07724 20.3880389,16.5920187 19.5674074,16.9674074 C18.2904491,17.5655289 16.903685,17.8933691 15.4940741,17.9303704 C15.0222222,17.9303704 14.7237037,17.8725926 14.5311111,18.4214815 C14.4830016,18.6078088 14.4830016,18.8033023 14.5311111,18.9896296 C14.6715854,19.4126134 15.0500628,19.7116106 15.4940741,19.7503704 C15.7285155,19.800629 15.9670129,19.8296355 16.2066667,19.837037 C19.6348148,19.9333333 22.3888889,17.2562963 22.4177778,17.237037 L22.4755556,17.1792593 L22.4755556,17.2562963 C21.9844444,18.3733333 19.1148148,20.3859259 16.2644444,20.3281481 C15.5523247,20.3870821 14.8496699,20.1341264 14.3385185,19.6348148 C13.6740741,18.8162963 14.0207407,17.4488889 15.0703704,17.42 L15.4074074,17.42 C17.9557809,17.4290618 20.378987,16.3160775 22.0325926,14.377037 C22.2637037,14.0881481 22.0325926,13.6933333 21.502963,13.6837037 C21.0705549,13.1941701 20.5430657,12.7977341 19.9525926,12.5185185 C18.9896296,12.0274074 19.0762963,12.4511111 18.8451852,10.0533333 C18.7874074,9.40814815 18.6622222,8.52222222 18.0940741,8.18518519 C17.9473157,8.10200401 17.781281,8.05883498 17.6125926,8.06 C17.5200789,8.04539723 17.4258471,8.04539723 17.3333333,8.06 C17.0569721,8.13864379 16.8094094,8.29587961 16.6207407,8.51259259 C15.5711111,9.47555556 14.6948148,9.21555556 13.4814815,9.20592593 C12.2715656,9.18974785 11.2391901,10.0775908 11.0740741,11.2762963 C10.9864833,11.8177555 11.009413,12.3713428 11.1414815,12.9037037 C10.96918,12.7911645 10.8107956,12.6586388 10.6696296,12.5088889 C10.8372909,13.2774714 11.2745275,13.9606537 11.9022222,14.4348148 C11.7678852,14.4508665 11.6321148,14.4508665 11.4977778,14.4348148 C11.8369383,14.7003039 12.2133142,14.9144488 12.6148148,15.0703704 C12.0926561,15.5287942 11.6895198,16.1070635 11.44,16.7555556 C11.2388622,17.3763814 11.1731884,18.03312 11.2474074,18.6814815 L11.5555556,18.2962963 C11.4407047,18.9415385 11.4971518,19.6056215 11.7192593,20.2222222 C11.8348148,19.9525926 12.1044444,19.4614815 12.1044444,19.4614815 C12.0927516,20.0896779 12.2349079,20.7111982 12.5185185,21.2718519 C12.5185185,21.0792593 12.6051852,20.5881481 12.6051852,20.5881481 C12.8102306,21.1487638 13.139433,21.6557355 13.5681481,22.0711111 C14.8007407,23.1111111 18.0266667,23.3518519 20.4918519,21.4162963 L20.4918519,21.4644444 Z" id="Shape" fill="#F7DAB8" fill-rule="nonzero"></path>
            <path d="M2.36888889,14.5792593 C1.97823887,14.2949551 1.61694182,13.9723685 1.29037037,13.6162963 C0.500740741,12.3355556 1.86814815,9.62962963 2.88888889,8.05037037 C5.2962963,4.19851852 9.30222222,1.19407407 11.1318519,1.62740741 L13,2.59037037 C12.3368467,2.96258578 11.7027033,3.38427499 11.102963,3.85185185 L10.7081481,4.18888889 C10.7081481,4.18888889 9.54296296,4.96888889 8.96518519,5.46 C6.45145665,7.5853197 4.56947846,10.3599884 3.52444444,13.4814815 C3.0530071,13.7443219 2.65554435,14.1219115 2.36888889,14.5792593 L2.36888889,14.5792593 Z" id="Path" fill="#0088BF"></path>
            <path d="M11.0837037,1.62740741 C9.2637037,1.19407407 5.25777778,4.21777778 2.88888889,8.05037037 L4.81481481,9.56222222 C6.06474605,7.55263363 7.70134235,5.81129517 9.62962963,4.43925926 L9.32148148,2.38814815 L9.88962963,2.11851852 L11.0355556,2.48444444 L10.9488889,2.09925926 L11.1125926,1.60814815 L11.0837037,1.62740741 Z" id="Path" fill="#28B8E3"></path>
            <polygon id="Path" fill="#FFCE48" points="12.9518519 2.59037037 11.102963 3.85185185 10.9777778 3.95777778 9.34074074 2.61925926 9.34074074 2.36888889 9.90888889 2.09925926 11.0548148 2.46518519 11.0548148 1.75259259 11.102963 1.58888889 11.6037037 1.3962963"></polygon>
            <path d="M16.6014815,1.31925926 C15.2966957,1.42597708 14.0406291,1.86344621 12.9518519,2.59037037 L12.5185185,2.88888889 L11.9696296,2.42666667 L12.1718519,3.12 L11.9503704,3.27407407 L10.8044444,2.88888889 L11.5555556,3.51481481 L11.102963,3.85185185 L9.30222222,2.39777778 L9.39851852,3.06222222 L10.7081481,4.21777778 C10.7081481,4.21777778 9.54296296,4.99777778 8.96518519,5.48888889 C6.45579941,7.60629233 4.57417092,10.3704545 3.52444444,13.4814815 L3.86148148,13.4814815 C4.60685787,13.2405182 5.41434332,13.2781552 6.13407407,13.5874074 C6.59394756,12.3463469 7.22606293,11.1761231 8.01185185,10.1111111 C8.62139083,9.14617675 9.43286468,8.32484695 10.3903704,7.7037037 C11.9214815,6.25925926 16.0622222,4.73777778 17.3814815,6.05703704 C17.7054232,5.55007549 17.9764733,5.01120224 18.1903704,4.44888889 C18.7392593,2.99481481 18.7488889,1.31925926 16.6014815,1.31925926 L16.6014815,1.31925926 Z" id="Path" fill="#0F2030"></path>
            <polygon id="Path" fill="#0F2030" points="11.3533333 2.60962963 11.0837037 1.62740741 10.92 2.11851852 11.0162963 2.5037037"></polygon>
            <path d="M22.1481481,16.8903704 C22.1389114,16.3694722 22.0069436,15.8580968 21.762963,15.3977778 C21.118141,16.0290919 20.3687797,16.5438705 19.5481481,16.9192593 C18.2711898,17.5173807 16.8844257,17.845221 15.4748148,17.8822222 C15.002963,17.8822222 14.7044444,17.8244444 14.5118519,18.3733333 C14.507473,18.424598 14.507473,18.4761427 14.5118519,18.5274074 L14.5118519,18.7777778 C14.5057748,18.8225106 14.5057748,18.8678598 14.5118519,18.9125926 C14.6523262,19.3355764 15.0308036,19.6345735 15.4748148,19.6733333 C15.7092562,19.723592 15.9477537,19.7525984 16.1874074,19.76 C18.3828557,19.7074097 20.4910642,18.8900107 22.1481481,17.4488889 C22.1589553,17.2628729 22.1589553,17.0763864 22.1481481,16.8903704 L22.1481481,16.8903704 Z M14.1362963,1.92592593 C14.7882288,1.60720148 15.4873503,1.39583918 16.2066667,1.3 C15.3214993,1.53356166 14.4794698,1.90743575 13.7125926,2.40740741 C12.3927101,3.29845238 11.1435685,4.29003903 9.9762963,5.37333333 C9.20592593,6.13407407 6.12444444,9.83185185 6.12444444,9.83185185 C6.63166504,8.86157872 7.24532052,7.95078481 7.95407407,7.1162963 C8.45481481,6.48074074 8.99407407,5.86444444 9.54296296,5.2962963 L10.1111111,4.81481481 C11.286209,3.63865675 12.645916,2.66279051 14.1362963,1.92592593 L14.1362963,1.92592593 Z" id="Shape" fill="#FFFFFF" fill-rule="nonzero"></path>
            <path d="M20.4918519,21.4162963 C20.1663688,21.6720958 19.8182643,21.8977191 19.4518519,22.0903704 C18.9353306,21.8855622 18.4784279,21.5544733 18.122963,21.1274074 C18.6934483,20.9721633 19.2455289,20.755851 19.7696296,20.4822222 C20.9542786,19.8878759 21.9932736,19.0395825 22.8125926,17.9977778 C22.4379798,19.3624056 21.6219007,20.5645138 20.4918519,21.4162963 L20.4918519,21.4162963 Z M18.2481481,12.5185185 C18.0378833,12.3909772 17.7818102,12.3634826 17.549262,12.4434792 C17.3167139,12.5234758 17.1317478,12.7026878 17.0444444,12.9325926 C17.2755556,12.9325926 17.5162963,13.1155556 17.5066667,13.337037 C17.6732992,13.18021 17.8941496,13.0939403 18.122963,13.0962963 C18.0157686,12.8992893 18.0690251,12.6534901 18.2481481,12.5185185 L18.2481481,12.5185185 Z M14.0688889,18.2962963 C14.1707803,17.8094071 14.5924539,17.4553604 15.0896296,17.4392593 L15.4074074,17.4392593 C17.9557809,17.448321 20.378987,16.3353368 22.0325926,14.3962963 C22.2637037,14.1074074 22.0325926,13.7125926 21.502963,13.702963 C21.4162963,13.7896296 21.4066667,13.9533333 21.2622222,14.2037037 C20.7503666,15.0068508 19.9942851,15.6245424 19.1051852,15.9659259 C16.2162963,17.4007407 14.7237037,16.7362963 14.1266667,17.6125926 C13.9736025,17.8101545 13.9369394,18.0741286 14.0303704,18.3059259 L14.0688889,18.2962963 Z M19.2592593,12.2296296 C18.98,12.0274074 18.9703704,11.6903704 18.8259259,10.0918519 C18.815023,9.53328332 18.6626163,8.98660716 18.382963,8.50296296 C18.3063205,8.42567747 18.2028751,8.38085114 18.0940741,8.37777778 C17.9014815,8.37777778 17.6703704,8.57037037 17.5451852,8.71481481 C17.2276486,9.21220244 16.7727527,9.60689157 16.2355556,9.85111111 C15.6718634,10.1104009 15.0547749,10.2324986 14.4348148,10.2074074 C13.9918519,10.2074074 13.6066667,10.1207407 13.2214815,10.1111111 C12.5451066,10.0701123 11.8911576,10.3611555 11.4688889,10.8911111 C11.1866135,11.2565672 11.0250697,11.7008126 11.0066667,12.1622222 L11.0066667,12.5474074 C11.0204517,12.6747408 11.0462455,12.8004856 11.0837037,12.922963 C10.9114022,12.8104238 10.7530178,12.6778981 10.6118519,12.5281481 C10.7734791,13.2941467 11.2081425,13.9752334 11.8348148,14.4444444 C11.7004778,14.4604961 11.5647074,14.4604961 11.4303704,14.4444444 C11.7695309,14.7099335 12.1459068,14.9240784 12.5474074,15.08 C13.145627,14.5814378 13.8809141,14.2759075 14.6562963,14.2037037 C15.0414815,13.962963 15.4651852,13.7222222 15.9081481,13.5007407 C15.8764991,13.0580713 16.0238236,12.6212179 16.3170915,12.2881236 C16.6103593,11.9550292 17.0250351,11.7535612 17.4681481,11.7288889 C17.9856668,11.6582695 18.4969917,11.8951332 18.7777778,12.3355556 L19.24,12.1911111 L19.2592593,12.2296296 Z M19.5962963,17.9207407 C19.3074074,17.9881481 16.38,19.1244444 14.5311111,18.537037 C14.5065017,18.6707288 14.5065017,18.8077897 14.5311111,18.9414815 C14.8770295,19.0075961 15.228567,19.0398472 15.5807407,19.0377778 C17.0147646,19.1176959 18.4354501,18.7253161 19.6251852,17.9207407 L19.5962963,17.9207407 Z M5.96074074,17.6896296 C6.10816259,17.5283689 6.17221972,17.3077277 6.13407407,17.0925926 C6.0762963,16.7844444 5.72962963,16.7266667 5.49851852,16.4859259 C5.40447816,16.3842225 5.3558159,16.2486634 5.3637037,16.1103704 C5.35929265,15.9990156 5.40868394,15.8923297 5.49644517,15.823647 C5.5842064,15.7549643 5.6996356,15.7326602 5.80666667,15.7637037 C5.93279397,15.8032264 6.04155738,15.884799 6.11481481,15.9948148 C6.09986536,15.8847395 6.06037423,15.7794299 5.99925926,15.6866667 C5.73342272,15.3525307 5.29423369,15.2086585 4.88222222,15.3207407 L4.65111111,15.3207407 C4.57988357,15.3559568 4.51217065,15.3978744 4.44888889,15.4459259 C3.79407407,16.3125926 4.81481481,17.7762963 5.98962963,17.6896296 L5.96074074,17.6896296 Z" id="Shape" fill="#EDBC8A" fill-rule="nonzero"></path>
            <path d="M15.2148148,12.7207407 C15.262963,12.7977778 15.2822222,12.8555556 15.2148148,12.8844444 C15.1474074,12.9133333 15.0222222,12.8844444 14.8007407,12.7785185 C14.2461326,12.5309206 13.6123859,12.5309206 13.0577778,12.7785185 C12.9365744,12.8378636 12.8064478,12.8769016 12.6725926,12.8940741 C12.5666667,12.8940741 12.6725926,12.6822222 12.8940741,12.4992593 C13.3544346,12.1286554 13.9739204,12.0229784 14.5311111,12.22 C14.8048009,12.3131765 15.0433973,12.4879232 15.2148148,12.7207407 L15.2148148,12.7207407 Z M15.0992593,13.3081481 C14.8788272,13.1601692 14.6090367,13.1048275 14.3481481,13.1540741 L14.1074074,13.1540741 C13.9823585,13.2021109 13.8678765,13.274071 13.7703704,13.3659259 C13.6548148,13.4814815 13.6162963,13.5874074 13.6548148,13.6162963 C13.6933333,13.6451852 13.7703704,13.6162963 13.8955556,13.5488889 C14.2276444,13.4389211 14.5823406,13.4157167 14.9259259,13.4814815 L15.1762963,13.4814815 C15.1955556,13.4814815 15.1666667,13.3659259 15.0992593,13.3081481 L15.0992593,13.3081481 Z M5.84518519,15.5133333 C5.90764893,15.5631077 5.96276218,15.6214629 6.00888889,15.6866667 C6.1437037,15.8696296 6.09555556,15.9851852 6.15333333,16.0333333 C6.17648277,16.0494525 6.20722094,16.0494525 6.23037037,16.0333333 C6.30740741,16.0333333 6.34592593,15.8792593 6.34592593,15.8022222 C6.34842199,15.5837764 6.26549192,15.3729958 6.11481481,15.2148148 C6.01934303,15.1056673 5.90522038,15.0143692 5.77777778,14.9451852 C5.63400466,14.8669495 5.47751548,14.8147864 5.31555556,14.7911111 C5.09614641,14.7482633 4.87052026,14.7482633 4.65111111,14.7911111 L4.5162963,14.7911111 C4.06155356,14.9425099 3.70473216,15.2993313 3.55333333,15.7540741 C3.48036457,16.0383553 3.48036457,16.3364595 3.55333333,16.6207407 C3.58917285,16.8189876 3.67539056,17.0046873 3.8037037,17.16 C3.96740741,17.3333333 4.15037037,17.3044444 4.07333333,17.16 C3.98966413,16.9819518 3.94376257,16.7885095 3.93851852,16.5918519 C3.92931118,16.3686706 3.96534228,16.1459329 4.04444444,15.937037 C4.08924683,15.8225812 4.15091674,15.7154703 4.22740741,15.6192593 C4.33275388,15.4906493 4.46399461,15.3856567 4.61259259,15.3111111 L4.8437037,15.3111111 C5.1906042,15.2129568 5.56355113,15.2882634 5.84518519,15.5133333 L5.84518519,15.5133333 Z M5.75851852,16.2644444 C5.71086204,16.2329509 5.67655723,16.1849242 5.66222222,16.1296296 C5.63099776,16.0468866 5.66342653,15.9536539 5.73925926,15.9081481 C5.80666667,15.9081481 5.85481481,15.8407407 5.86444444,15.8118519 C5.87407407,15.782963 5.64296296,15.7059259 5.48888889,15.8118519 C5.32349108,15.9951129 5.32349108,16.273776 5.48888889,16.457037 C5.72,16.7074074 6.0762963,16.7651852 6.13407407,17.0733333 C6.13991991,17.121304 6.13991991,17.1698071 6.13407407,17.2177778 C6.13871445,17.2658141 6.13871445,17.3141859 6.13407407,17.3622222 C6.04807231,17.7338567 5.67801953,17.9662155 5.30592593,17.8822222 L5.14222222,17.8822222 C5.12296296,17.8822222 5.30592593,18.1614815 5.68148148,18.1518519 C6.07441907,18.1170596 6.40639885,17.8461336 6.51925926,17.4681481 C6.5271429,17.3945315 6.5271429,17.3202834 6.51925926,17.2466667 C6.52932962,17.1667357 6.52932962,17.0858569 6.51925926,17.0059259 C6.48074074,16.5244444 5.96074074,16.3703704 5.77777778,16.2644444 L5.75851852,16.2644444 Z M18.3733333,12.5185185 C18.2288889,12.5185185 18.0940741,12.6340741 18.0555556,12.8362963 C18.0047654,13.0009624 18.094472,13.1761039 18.2577778,13.2311111 C18.4022222,13.2311111 18.537037,13.1155556 18.5755556,12.9133333 C18.6263457,12.7486673 18.5366391,12.5735257 18.3733333,12.5185185 L18.3733333,12.5185185 Z M16.8037037,13.0866667 C16.6728457,13.2142223 16.6385116,13.4113045 16.7185262,13.5755967 C16.7985408,13.7398888 16.9748743,13.8343704 17.1559816,13.8099906 C17.337089,13.7856107 17.4821608,13.6478631 17.5158819,13.4682603 C17.549603,13.2886576 17.4643749,13.1076703 17.3044444,13.0192593 C17.1414165,12.908637 16.9200699,12.946947 16.8037037,13.1059259 L16.8037037,13.0866667 Z M11.0259259,7.30888889 C13.7318519,5.5562963 16.4281481,5.38296296 17.3622222,6.06666667 L17.3622222,6.00888889 C17.0857507,5.52958928 16.627358,5.1823221 16.0911111,5.04592593 C16.1905432,5.15133248 16.2777618,5.26762395 16.3511111,5.39259259 C15.9341847,5.11201405 15.4663823,4.91573335 14.9740741,4.81481481 L15.0414815,4.87259259 C15.1596531,4.9793178 15.2575276,5.10655464 15.3303704,5.24814815 C14.8134593,5.03227693 14.2472372,4.96233185 13.6933333,5.04592593 L13.6259259,5.04592593 L13.7125926,5.04592593 C13.9176665,5.09608881 14.1045202,5.20286236 14.2518519,5.35407407 C13.4493626,5.20906955 12.621649,5.31673961 11.882963,5.66222222 L12.0081481,5.66222222 C12.2619007,5.65632215 12.5141941,5.70219368 12.7496296,5.79703704 C12.105693,5.90509289 11.49387,6.15508507 10.9585185,6.52888889 C11.1859203,6.50755146 11.4148204,6.50755146 11.6422222,6.52888889 C10.2144615,7.347093 9.02333254,8.5216324 8.18518519,9.93777778 C8.97695677,8.89785423 9.94494858,8.00482475 11.0451852,7.29925926 L11.0259259,7.30888889 Z" id="Shape" fill="#9E7355" fill-rule="nonzero"></path>
            <path d="M17.4296296,11.1318519 C17.4296296,10.9488889 17.4296296,10.6407407 17.6318519,10.582963 C17.9303704,10.477037 18.3251852,11.2474074 18.3444444,11.9311111 C18.0963417,11.8104875 17.819814,11.7605126 17.5451852,11.7866667 C17.4753043,11.5751062 17.436383,11.3545524 17.4296296,11.1318519 L17.4296296,11.1318519 Z" id="Path" fill="#6A4C46"></path>
        </g>
    </g>
</svg>