<?xml version="1.0" encoding="UTF-8"?>
<svg width="26px" height="26px" viewBox="0 0 26 26" version="1.1" xmlns="http://www.w3.org/2000/svg" xmlns:xlink="http://www.w3.org/1999/xlink">
    <!-- Generator: Sketch 54.1 (76490) - https://sketchapp.com -->
    <title>Element/Icon Logo/pingdom</title>
    <desc>Created with Sketch.</desc>
    <g id="Element/Icon-Logo/pingdom" stroke="none" stroke-width="1" fill="none" fill-rule="evenodd">
        <g id="alert-pingdomlogo">
            <g id="holder">
                <g id="path-1-link" fill="#000000" fill-rule="nonzero">
                    <rect id="path-1" x="0" y="0" width="26" height="26" rx="13"></rect>
                </g>
                <g id="path-1-link" fill="#FFF000" stroke="#FFF000">
                    <rect id="path-1" x="0" y="0" width="26" height="26" rx="13"></rect>
                </g>
            </g>
            <g id="logo" transform="translate(10.086207, 8.517241)" fill="#181818" fill-rule="nonzero">
                <g id="Group">
                    <path d="M3.34878015,5.03971424 C2.46102966,5.04105175 1.74029475,4.31350947 1.7389737,3.41470306 C1.73765264,2.51589667 2.45624569,1.78618585 3.34399618,1.78484834 C4.23174668,1.78351083 4.95248159,2.51105312 4.95380264,3.40985951 C4.9551237,4.30866592 4.23653066,5.03837672 3.34878015,5.03971424 Z M3.34878015,0.0096871009 C1.5021671,0.016225894 0.00645836173,1.53056194 0,3.40017241 L0,8.24372285 C-1.31824481e-08,8.56039228 0.166863016,8.85300688 0.437733395,9.0113416 C0.708603776,9.1696763 1.04232985,9.1696763 1.31320023,9.0113416 C1.58407061,8.85300688 1.75093364,8.56039228 1.75093363,8.24372285 L1.75093363,6.38864304 C2.24290912,6.66145582 2.79502324,6.80391081 3.35595611,6.8027666 C5.21141952,6.8027666 6.7155002,5.27995434 6.7155002,3.40138331 C6.7155002,1.52281226 5.21141952,0 3.35595611,0 L3.34878015,0.0096871009 L3.34878015,0.0096871009 Z" id="Shape"></path>
                </g>
            </g>
        </g>
    </g>
</svg>