<?xml version="1.0" encoding="UTF-8"?>
<svg width="26px" height="26px" viewBox="0 0 26 26" version="1.1" xmlns="http://www.w3.org/2000/svg" xmlns:xlink="http://www.w3.org/1999/xlink">
    <!-- Generator: Sketch 54.1 (76490) - https://sketchapp.com -->
    <title>Element/Icon Logo/SE Ranking</title>
    <desc>Created with Sketch.</desc>
    <g id="Element/Icon-Logo/SE-Ranking" stroke="none" stroke-width="1" fill="none" fill-rule="evenodd">
        <g id="serankinglogo" transform="translate(0.000000, 2.000000)" fill="#1B81F7" fill-rule="nonzero">
            <path d="M0,1.92014815 C0,0.859925926 0.859925926,0 1.92207407,0 L23.9354074,0 C24.9975556,0 25.8584444,0.862814815 25.8584444,1.92014815 L25.8584444,19.0897778 C25.8581891,19.5992881 25.655542,20.0878289 25.2950832,20.4479265 C24.9346244,20.8080241 24.4458807,21.0101814 23.9363704,21.0099259 L1.92303704,21.0099259 C0.862100167,21.0099271 0.001593796,20.1507135 0,19.0897778 L0,1.92014815 Z M1.61392593,2.57207407 L1.61392593,18.4378519 C1.61392593,18.954963 2.04918519,19.3940741 2.58651852,19.3940741 L23.2680741,19.3940741 C23.5240442,19.3968973 23.7705838,19.2975844 23.9531227,19.1181179 C24.1356617,18.9386515 24.2391448,18.693833 24.2406667,18.4378519 L24.2406667,2.57207407 C24.2317321,2.04132983 23.7988935,1.61577665 23.2680741,1.61585185 L2.58651852,1.61585185 C2.33054838,1.61302867 2.08400877,1.71234149 1.90146984,1.89180798 C1.71893092,2.07127447 1.61544781,2.31609289 1.61392593,2.57207407 Z M2.42377778,9.854 C2.42198443,9.59938361 2.52161108,9.35452465 2.70066007,9.17348823 C2.87970906,8.99245182 3.1234534,8.8901284 3.37807407,8.88911111 L7.93481481,8.88911111 C8.46155556,8.88911111 8.88814815,9.31762963 8.88814815,9.854 L8.88814815,18.5861481 L2.42474074,18.5861481 L2.42474074,9.854 L2.42377778,9.854 Z M9.69703704,6.62807407 C9.69703704,6.0917037 10.1207407,5.65644444 10.6503704,5.65644444 L15.2080741,5.65644444 C15.7348148,5.65644444 16.1614074,6.08688889 16.1614074,6.62903704 L16.1614074,18.5851852 L9.69703704,18.5851852 L9.69703704,6.62807407 Z M16.9693333,3.38674074 C16.9693333,2.85518519 17.393037,2.42377778 17.9226667,2.42377778 L22.4803704,2.42377778 C23.0071111,2.42377778 23.4337037,2.85711111 23.4337037,3.38674074 L23.4337037,18.5861481 L16.9693333,18.5861481 L16.9693333,3.38674074 L16.9693333,3.38674074 Z" id="Shape"></path>
        </g>
    </g>
</svg>