<?xml version="1.0" encoding="UTF-8"?>
<svg width="26px" height="26px" viewBox="0 0 26 26" version="1.1" xmlns="http://www.w3.org/2000/svg" xmlns:xlink="http://www.w3.org/1999/xlink">
    <!-- Generator: Sketch 54.1 (76490) - https://sketchapp.com -->
    <title>Element/Icon Logo/Sendinblue</title>
    <desc>Created with Sketch.</desc>
    <g id="Element/Icon-Logo/Sendinblue" stroke="none" stroke-width="1" fill="none" fill-rule="evenodd">
        <g id="g6354" fill="#358AC8" fill-rule="nonzero">
            <path d="M9.61622745,8.35813333 L18.8475529,12.0623686 L18.8470431,12.0716471 L18.8588706,12.0669569 L18.8708,12.0716471 L18.8720235,12.0616549 L25.4374824,9.42729412 C25.1937961,8.57337255 24.8655843,7.75564706 24.4611059,6.98349804 L9.61622745,6.98349804 L9.61622745,8.35813333 L9.61622745,8.35813333 Z" id="path6356"></path>
            <path d="M18.8708,14.4078745 L18.8588706,14.4032863 L18.8470431,14.4078745 L18.8475529,14.3985961 L9.61622745,10.6943608 L9.61622745,17.9495843 L24.9540863,17.9495843 C25.5867529,16.4221098 25.9376,14.7484235 25.9376,12.992149 C25.9376,12.5193569 25.9107843,12.0528863 25.8613333,11.5931451 L18.8719216,14.3977804 L18.8708,14.4078745 L18.8708,14.4078745 Z" id="path6358"></path>
            <path d="M7.45975686,4.82692549 L23.0423216,4.82692549 C20.6645961,1.89718431 17.0361176,0.0233490196 12.968902,0.0233490196 C9.46104314,0.0233490196 0.0214117647,0 0.0214117647,0 C0.0214117647,0 0,9.33767059 0,12.992251 C0,20.1546902 5.80636078,25.9611529 12.9688,25.9611529 C17.5036078,25.9611529 21.4924157,23.6319608 23.8105961,20.1062588 L7.45975686,20.1062588 L7.45975686,4.82692549 Z" id="path6360"></path>
        </g>
    </g>
</svg>