<?xml version="1.0" encoding="UTF-8"?>
<svg width="26px" height="26px" viewBox="0 0 26 26" version="1.1" xmlns="http://www.w3.org/2000/svg" xmlns:xlink="http://www.w3.org/1999/xlink">
    <!-- Generator: Sketch 63.1 (92452) - https://sketch.com -->
    <title>Serpstat Logo</title>
    <desc>Created with Sketch.</desc>
    <g id="Serpstat-Logo" stroke="none" stroke-width="1" fill="none" fill-rule="evenodd">
        <path d="M25.467399,4 L8.77437793,4 L8.77523519,4.003953 C8.49048399,4.01503553 8.26181149,4.24395669 8.26181149,4.52772576 C8.26181149,4.67808102 8.3266056,4.81205955 8.42897602,4.90791985 L8.42654713,4.91031988 L12.0398727,8.45729209 C12.2498999,8.6641188 12.2498999,9.00082986 12.0405871,9.20765657 L6.09481629,15.0489229 C5.94193933,15.2002664 5.979087,15.4553762 6.16911163,15.556813 L6.9084932,15.9528191 C7.04422508,16.0255261 7.25710982,16.0107024 7.38998418,15.9323482 C7.57357941,15.8236407 7.78717853,15.7601103 8.01649397,15.7601103 C8.1736572,15.7601103 8.32224789,15.7918755 8.46012291,15.8462293 C8.53727577,15.8772886 8.62585868,15.8674061 8.68800959,15.8116405 L10.0989068,14.5480916 C10.097478,14.5219736 10.0910486,14.4965614 10.0910486,14.4697375 C10.0910486,13.7963154 10.6418343,13.249954 11.3212081,13.249954 C11.8934251,13.249954 12.3706298,13.6381953 12.5077905,14.162674 L13.875825,14.7379769 C13.9179733,14.7549184 13.9644079,14.7478594 14.0029843,14.7224473 C14.2001527,14.5862099 14.4387551,14.5043263 14.6966457,14.5043263 C14.8188043,14.5043263 14.9373911,14.5240913 15.0488342,14.5579742 C15.0904824,14.5713861 15.1352739,14.5615036 15.1672067,14.5318561 L17.5303701,12.2511151 C17.5646603,12.2186441 17.5821626,12.1699374 17.5813768,12.1233485 C17.5606598,10.9254477 18.453847,10.7865985 18.8048925,10.7750924 C19.3378187,10.7553274 19.7857339,11.1188624 19.951184,11.5953404 C19.9681862,11.6405175 20.0026192,11.6779299 20.0490538,11.6941654 L21.5460336,12.2009967 C21.6028266,12.2207617 21.6628344,12.2050203 21.7074831,12.1661962 C21.9251541,11.9713697 22.2121913,11.8517914 22.5280894,11.8517914 C22.6402468,11.8517914 22.8352721,11.9216748 22.9488583,11.7995553 L25.9192433,8.8009209 C25.9708929,8.7493907 26,8.67950727 26,8.60567084 L26,4.53083169 C26.0031828,4.23767424 25.7631517,4 25.467399,4" id="Path" fill="#004683" fill-rule="nonzero"></path>
        <path d="M25.9913566,11.174188 C25.9913566,11.0186751 25.7986011,10.9409187 25.6875716,11.0529127 L23.8031634,12.9350857 C23.7619138,12.9755108 23.7460324,13.0338797 23.7555894,13.0906673 C23.8039364,13.4001805 23.739708,13.7462688 23.3201151,14.1274197 C23.0988995,14.3288576 22.8173205,14.4673204 22.5151518,14.4603079 C22.0225466,14.4471079 21.6078025,14.1461197 21.4269932,13.7237187 C21.4080198,13.6794436 21.3721812,13.6428686 21.3246774,13.626506 L19.767806,13.1031111 C19.7138372,13.085236 19.6560738,13.0989861 19.6107485,13.1347362 C19.4013386,13.3011115 19.1357112,13.4021743 18.8454888,13.4021743 C18.7137292,13.4021743 18.5892076,13.3767367 18.4702374,13.3382366 C18.4702374,13.3382366 16.6937666,15.0239904 16.0623746,15.6331168 C15.985427,15.708742 15.984654,15.714242 16.0020814,15.8661798 C16.0020814,16.5275563 15.456421,17.0631201 14.7814605,17.0631201 C14.2112752,17.0631201 13.7353946,16.6788067 13.6013863,16.161118 C13.587332,16.1081804 13.5521961,16.0634928 13.5008977,16.0414927 L12.3449268,15.5609292 C12.2866012,15.5354916 12.2205457,15.5478666 12.1692473,15.5863667 C11.9647564,15.7396796 11.7110753,15.8331798 11.4349071,15.8331798 C11.3034989,15.8331798 11.176307,15.8125547 11.0575476,15.7733671 C10.9872758,15.7506796 10.9099769,15.7623671 10.8544622,15.8104922 L9.44762098,17.05762 C9.39983616,17.0995576 9.37453832,17.1579953 9.36751114,17.2205579 C9.30567197,17.8241843 8.78847161,18.2958104 8.15602552,18.2958104 C7.66623116,18.2958104 7.24811403,18.0111847 7.05416389,17.6021213 C7.0035682,17.494871 6.91010673,17.4137459 6.80540176,17.3573707 L5.22147567,16.5186188 C5.09709461,16.4526187 4.94390211,16.4753062 4.84411617,16.5722439 L0.15621495,21.113123 L0.154528427,21.1147042 L0.148203967,21.1208918 L0.149890489,21.1215793 C0.0578344477,21.2150795 0,21.3408923 0,21.4811426 C-0.000491135995,21.7674182 0.235832886,22 0.529358142,22 L15.9020144,22 C16.1963126,22 16.6078945,21.8343121 16.8173044,21.6313617 L17.1187704,21.3381422 L17.1274138,21.3295485 L20.7351674,17.8241843 C20.9438746,17.6220588 21.2839901,17.6220588 21.4926973,17.8241843 L25.0902614,21.3221922 C25.1870257,21.4198174 25.320261,21.4810051 25.4701507,21.4810051 C25.7617786,21.4810051 26,21.249317 26,20.9633164 L25.9908647,11.1753567 L25.9913566,11.174188 Z" id="Path" fill="#006EC2" fill-rule="nonzero"></path>
    </g>
</svg>