<?xml version="1.0" encoding="UTF-8"?>
<svg width="26px" height="26px" viewBox="0 0 26 26" version="1.1" xmlns="http://www.w3.org/2000/svg" xmlns:xlink="http://www.w3.org/1999/xlink">
    <!-- Generator: Sketch 54.1 (76490) - https://sketchapp.com -->
    <title>Element/Icon Logo/Shopify</title>
    <desc>Created with Sketch.</desc>
    <g id="Element/Icon-Logo/Shopify" stroke="none" stroke-width="1" fill="none" fill-rule="evenodd">
        <g id="shopify-seeklogo.com" transform="translate(2.000000, 0.000000)">
            <path d="M19.9250489,5.10563494 C19.9071789,4.97555772 19.7933094,4.903662 19.69918,4.89576594 C19.6052584,4.88786988 17.6171133,4.740546 17.6171133,4.740546 C17.6171133,4.740546 16.2363415,3.36974816 16.0848617,3.21806066 C15.9331742,3.06637316 15.6370719,3.11250278 15.5221635,3.14637273 C15.5051246,3.15135971 15.2204508,3.23925535 14.7493884,3.3849169 C14.2880922,2.05775519 13.4741745,0.838021477 12.0420783,0.838021477 C12.002598,0.838021477 11.9618708,0.839683806 11.9211438,0.841969509 C11.5138733,0.303374996 11.0093565,0.069402225 10.5736186,0.069402225 C7.23774038,0.069402225 5.6439827,4.23956167 5.14424513,6.35882303 C3.84804429,6.76048321 2.92711417,7.04598817 2.8095044,7.08297498 C2.08597582,7.30988285 2.0631188,7.33273988 1.96815827,8.01450245 C1.89647035,8.53065553 0.00328569666,23.1716159 0.00328569666,23.1716159 L14.7554143,25.935653 L22.7487221,24.2064156 C22.7487221,24.2064156 19.9427112,5.23571217 19.9250489,5.10563494 L19.9250489,5.10563494 Z M13.9340162,3.63717529 C13.5635246,3.75187597 13.1423321,3.88216099 12.685815,4.02345893 C12.6862307,3.9355633 12.6866462,3.84891442 12.6866462,3.75436947 C12.6866462,2.92943882 12.5721533,2.2653385 12.388466,1.73879587 C13.1263321,1.83147069 13.6177581,2.67094671 13.9340162,3.63717529 L13.9340162,3.63717529 Z M11.4731463,1.90232745 C11.678236,2.41640262 11.8116379,3.154061 11.8116379,4.14958812 C11.8116379,4.20049694 11.8112223,4.24704215 11.8108067,4.29421073 C10.998967,4.54563795 10.1168937,4.81867544 9.23274264,5.0925441 C9.72915557,3.17671023 10.6596441,2.2514165 11.4731463,1.90232745 L11.4731463,1.90232745 Z M10.4819827,0.964150672 C10.6259819,0.964150672 10.7710201,1.01298157 10.9098246,1.10856548 C9.84073938,1.61162772 8.69477152,2.8787378 8.21082607,5.40900994 C7.50350519,5.62802175 6.81218423,5.84204657 6.17301883,6.04007149 C6.73987293,4.11010782 8.08594363,0.964150672 10.4819827,0.964150672 L10.4819827,0.964150672 Z" id="Shape" fill="#95BF46" fill-rule="nonzero"></path>
            <path d="M19.69918,4.89576594 C19.6052584,4.88786988 17.6171133,4.740546 17.6171133,4.740546 C17.6171133,4.740546 16.2363415,3.36974816 16.0848617,3.21806066 C16.0281348,3.16154147 15.9516676,3.13265852 15.8716681,3.12019105 L14.7562455,25.9354453 L22.7487221,24.2064156 C22.7487221,24.2064156 19.9427112,5.23571217 19.9250489,5.10563494 C19.9071789,4.97555772 19.7933094,4.903662 19.69918,4.89576594" id="Path" fill="#5E8E3E"></path>
            <path d="M12.0420783,9.3123656 L11.0565251,12.2440902 C11.0565251,12.2440902 10.1929453,11.7832095 9.13445748,11.7832095 C7.5826736,11.7832095 7.50454415,12.7571263 7.50454415,13.0025276 C7.50454415,14.3415334 10.9950189,14.8545697 10.9950189,17.9909684 C10.9950189,20.4584876 9.42993644,22.0474661 7.31961007,22.0474661 C4.78726003,22.0474661 3.49230594,20.4713707 3.49230594,20.4713707 L4.17032827,18.2311749 C4.17032827,18.2311749 5.50143802,19.3740259 6.62475666,19.3740259 C7.3586748,19.3740259 7.6572706,18.7961589 7.6572706,18.3739274 C7.6572706,16.6272354 4.79370155,16.5493138 4.79370155,13.6793032 C4.79370155,11.2637318 6.52751043,8.92608199 10.0273358,8.92608199 C11.3759,8.92608199 12.0420783,9.3123656 12.0420783,9.3123656" id="Path" fill="#FFFFFF"></path>
        </g>
    </g>
</svg>