<?xml version="1.0" encoding="UTF-8"?>
<svg width="26px" height="26px" viewBox="0 0 26 26" version="1.1" xmlns="http://www.w3.org/2000/svg" xmlns:xlink="http://www.w3.org/1999/xlink">
    <!-- Generator: Sketch 54.1 (76490) - https://sketchapp.com -->
    <title>Element/Icon Logo/Stripe</title>
    <desc>Created with Sketch.</desc>
    <defs>
        <linearGradient x1="100%" y1="58.3557129%" x2="0%" y2="0%" id="linearGradient-1">
            <stop stop-color="#2697D4" offset="0%"></stop>
            <stop stop-color="#207BCB" offset="50%"></stop>
            <stop stop-color="#2285CE" offset="100%"></stop>
        </linearGradient>
    </defs>
    <g id="Element/Icon-Logo/Stripe" stroke="none" stroke-width="1" fill="none" fill-rule="evenodd">
        <g id="stripe-seeklogo.com">
            <rect id="Rectangle" fill="url(#linearGradient-1)" x="0" y="0" width="26" height="26"></rect>
            <path d="M14.1870117,11.2735049 C12.8741497,10.7879092 12.1546589,10.4102237 12.1546589,9.81671784 C12.1546589,9.31304718 12.5683594,9.02533173 13.3057904,9.02533173 C14.6546673,9.02533173 16.0394245,9.54694245 16.9926758,10.0144632 L17.5322266,6.68732331 C16.7768555,6.32757782 15.2300983,5.73407196 13.0899701,5.73407196 C11.5792279,5.73407196 10.3201862,6.12969757 9.42102478,6.8671286 C8.4857135,7.64043976 8.0001178,8.75555634 8.0001178,10.1044333 C8.0001178,12.5503518 9.49291992,13.5935733 11.9208984,14.4747946 C13.4855957,15.0322854 14.0072064,15.428046 14.0072064,16.0394919 C14.0072064,16.6329978 13.5035358,16.9746682 12.5862995,16.9746682 C11.4532428,16.9746682 9.58289002,16.4171775 8.35986328,15.6978213 L7.8203125,19.0609763 C8.86339905,19.6544821 10.8057819,20.265928 12.8201947,20.265928 C14.4207721,20.265928 15.751709,19.8882425 16.6510052,19.1688864 C17.6580768,18.3775003 18.1796875,17.2085635 18.1796875,15.6978213 C18.1796875,13.1978128 16.6510052,12.1547263 14.1870117,11.2735049 L14.1870117,11.2735049 Z" id="Path" fill="#FFFFFF"></path>
        </g>
    </g>
</svg>