<?xml version="1.0" encoding="UTF-8"?>
<svg width="26px" height="26px" viewBox="0 0 26 26" version="1.1" xmlns="http://www.w3.org/2000/svg" xmlns:xlink="http://www.w3.org/1999/xlink">
    <!-- Generator: Sketch 54.1 (76490) - https://sketchapp.com -->
    <title>Element/Icon Logo/Twitter Ads</title>
    <desc>Created with Sketch.</desc>
    <g id="Element/Icon-Logo/Twitter-Ads" stroke="none" stroke-width="1" fill="none" fill-rule="evenodd">
        <path d="M16.304,26.208 C16.229333,25.9893322 16.1520004,25.7733344 16.072,25.56 C15.9919996,25.3466656 15.914667,25.1280011 15.84,24.904 L13.504,24.904 C13.429333,25.1280011 13.3533337,25.3479989 13.276,25.564 C13.1986663,25.7800011 13.122667,25.9946656 13.048,26.208 L12,26.208 C12.208001,25.615997 12.4053324,25.0693358 12.592,24.568 C12.7786676,24.0666642 12.9613324,23.5920022 13.14,23.144 C13.3186676,22.6959978 13.4959991,22.2693354 13.672,21.864 C13.8480009,21.4586646 14.0293324,21.0586686 14.216,20.664 L15.168,20.664 C15.3546676,21.0586686 15.5359991,21.4586646 15.712,21.864 C15.8880009,22.2693354 16.0653324,22.6959978 16.244,23.144 C16.4226676,23.5920022 16.6066657,24.0666642 16.796,24.568 C16.9853343,25.0693358 17.183999,25.615997 17.392,26.208 L16.304,26.208 Z M14.672,21.736 C14.5493327,22.0186681 14.4093341,22.3626646 14.252,22.768 C14.0946659,23.1733354 13.9306675,23.613331 13.76,24.088 L15.584,24.088 C15.4133325,23.613331 15.2480008,23.1706687 15.088,22.76 C14.9279992,22.3493313 14.7893339,22.0080014 14.672,21.736 Z M18.696,24.104 C18.696,24.5306688 18.7973323,24.8653321 19,25.108 C19.2026677,25.3506679 19.4826649,25.472 19.84,25.472 C19.9946674,25.472 20.1266661,25.4653334 20.236,25.452 C20.3453339,25.4386666 20.4346663,25.4240001 20.504,25.408 L20.504,23.008 C20.4186662,22.949333 20.305334,22.8946669 20.164,22.844 C20.022666,22.7933331 19.8720008,22.768 19.712,22.768 C19.3599982,22.768 19.1026675,22.8879988 18.94,23.128 C18.7773325,23.3680012 18.696,23.6933313 18.696,24.104 Z M21.472,26.08 C21.279999,26.138667 21.0386681,26.1919998 20.748,26.24 C20.4573319,26.2880002 20.1520016,26.312 19.832,26.312 C19.5013317,26.312 19.2053346,26.2613338 18.944,26.16 C18.6826654,26.0586662 18.4600009,25.9133343 18.276,25.724 C18.0919991,25.5346657 17.9506672,25.3053347 17.852,25.036 C17.7533328,24.7666653 17.704,24.4640017 17.704,24.128 C17.704,23.7973317 17.7453329,23.4973347 17.828,23.228 C17.9106671,22.9586653 18.0319992,22.728001 18.192,22.536 C18.3520008,22.343999 18.5466655,22.1960005 18.776,22.092 C19.0053345,21.9879995 19.2693318,21.936 19.568,21.936 C19.7706677,21.936 19.9493326,21.9599998 20.104,22.008 C20.2586674,22.0560002 20.3919994,22.109333 20.504,22.168 L20.504,20.16 L21.472,20 L21.472,26.08 Z M23.752,25.512 C24.0080013,25.512 24.1946661,25.4813336 24.312,25.42 C24.4293339,25.3586664 24.488,25.2533341 24.488,25.104 C24.488,24.9653326 24.425334,24.8506671 24.3,24.76 C24.174666,24.6693329 23.9680014,24.5706672 23.68,24.464 C23.5039991,24.3999997 23.3426674,24.3320004 23.196,24.26 C23.0493326,24.1879996 22.9226672,24.1040005 22.816,24.008 C22.7093328,23.9119995 22.6253336,23.7960007 22.564,23.66 C22.5026664,23.5239993 22.472,23.3573343 22.472,23.16 C22.472,22.7759981 22.6133319,22.4733344 22.896,22.252 C23.1786681,22.0306656 23.5626642,21.92 24.048,21.92 C24.2933346,21.92 24.5279989,21.9426664 24.752,21.988 C24.9760011,22.0333336 25.1439994,22.0773331 25.256,22.12 L25.08,22.904 C24.9733328,22.8559998 24.8373342,22.8120002 24.672,22.772 C24.5066658,22.7319998 24.3146678,22.712 24.096,22.712 C23.8986657,22.712 23.7386673,22.745333 23.616,22.812 C23.4933327,22.878667 23.432,22.9813326 23.432,23.12 C23.432,23.1893337 23.4439999,23.2506664 23.468,23.304 C23.4920001,23.3573336 23.533333,23.4066664 23.592,23.452 C23.650667,23.4973336 23.7279995,23.5426664 23.824,23.588 C23.9200005,23.6333336 24.0373326,23.6799998 24.176,23.728 C24.4053345,23.8133338 24.5999992,23.8973329 24.76,23.98 C24.9200008,24.0626671 25.0519995,24.1559995 25.156,24.26 C25.2600005,24.3640005 25.3359998,24.482666 25.384,24.616 C25.4320002,24.749334 25.456,24.9093324 25.456,25.096 C25.456,25.496002 25.3080015,25.7986656 25.012,26.004 C24.7159985,26.2093344 24.2933361,26.312 23.744,26.312 C23.3759982,26.312 23.0800011,26.2813336 22.856,26.22 C22.6319989,26.1586664 22.4746671,26.1093335 22.384,26.072 L22.552,25.264 C22.6960007,25.322667 22.867999,25.3786664 23.068,25.432 C23.268001,25.4853336 23.4959987,25.512 23.752,25.512 Z" id="Ads" fill="#505D68" fill-rule="nonzero"></path>
        <g id="Twitter_Bird" fill="#1DA1F2" fill-rule="nonzero">
            <path d="M7.89323083,20.265585 C17.2649292,20.265585 22.3895867,12.5016142 22.3895867,5.76923083 C22.3895867,5.5487075 22.385095,5.32917917 22.3752033,5.11064333 C23.3700358,4.39146333 24.2347417,3.4939775 24.9166717,2.47232333 C24.0037892,2.87810417 23.0213733,3.15127417 21.9907792,3.27444917 C23.04273,2.643675 23.8503175,1.6458625 24.231265,0.456333333 C23.2468617,1.0399225 22.1566675,1.46408083 20.9959458,1.69304583 C20.0661767,0.7026825 18.7425467,0.0833333333 17.2768692,0.0833333333 C14.4632242,0.0833333333 12.1815142,2.36504333 12.1815142,5.17769417 C12.1815142,5.57751417 12.2262142,5.96640917 12.3136292,6.33940833 C8.0790075,6.12633667 4.32416833,4.09892333 1.8115075,1.0160825 C1.37393917,1.76903667 1.12163083,2.643675 1.12163083,3.57692083 C1.12163083,5.34457583 2.0211025,6.90511833 3.38893583,7.81800083 C2.55303833,7.79217417 1.7678,7.56271083 1.08139917,7.18077083 C1.08064917,7.2021475 1.08064917,7.22298833 1.08064917,7.245835 C1.08064917,9.71329917 2.83688083,11.7734933 5.1682575,12.2403642 C4.74012667,12.3570825 4.289645,12.4196625 3.82476083,12.4196625 C3.4969575,12.4196625 3.1775975,12.3873992 2.86717833,12.3277792 C3.51583083,14.3522125 5.39672583,15.82534 7.6267825,15.866565 C5.8829675,17.2334042 3.68618917,18.04745 1.29868917,18.04745 C0.887940833,18.04745 0.482160833,18.0240867 0.0833333333,17.9769217 C2.33822333,19.4222375 5.01578,20.265585 7.89349417,20.265585" id="path3611"></path>
        </g>
    </g>
</svg>