<?xml version="1.0" encoding="UTF-8"?>
<svg width="26px" height="26px" viewBox="0 0 26 26" version="1.1" xmlns="http://www.w3.org/2000/svg" xmlns:xlink="http://www.w3.org/1999/xlink">
    <!-- Generator: Sketch 54.1 (76490) - https://sketchapp.com -->
    <title>Element/Icon Logo/Twitter</title>
    <desc>Created with Sketch.</desc>
    <g id="Element/Icon-Logo/Twitter" stroke="none" stroke-width="1" fill="none" fill-rule="evenodd">
        <g id="Twitter_Bird" transform="translate(0.000000, 2.000000)" fill="#1DA1F2" fill-rule="nonzero">
            <path d="M8.20896007,21.0762084 C17.9555263,21.0762084 23.2851701,13.0016787 23.2851701,6.00000007 C23.2851701,5.7706558 23.2804988,5.54234633 23.2702115,5.31506907 C24.3048373,4.56712187 25.2041313,3.6337366 25.9133385,2.57121627 C24.9639407,2.99322833 23.9422283,3.27732513 22.8704103,3.40542713 C23.9644392,2.749422 24.8043302,1.711697 25.2005156,0.474586667 C24.1767361,1.0815194 23.0429342,1.52264407 21.8357837,1.76076767 C20.8688237,0.7307898 19.4922485,0.0866666667 17.9679439,0.0866666667 C15.0417531,0.0866666667 12.6687747,2.45964507 12.6687747,5.38480193 C12.6687747,5.80061473 12.7152627,6.20506553 12.8061743,6.59298467 C8.4021678,6.37139013 4.49713507,4.26288027 1.8839678,1.0567258 C1.42889673,1.83979813 1.16649607,2.749422 1.16649607,3.71999767 C1.16649607,5.55835887 2.1019466,7.18132307 3.52449327,8.13072087 C2.65515987,8.10386113 1.838512,7.86521927 1.12465513,7.46800167 C1.12387513,7.4902334 1.12387513,7.51190787 1.12387513,7.5356684 C1.12387513,10.1018311 2.95035607,12.2444331 5.3749878,12.7299787 C4.92973173,12.8513658 4.4612308,12.916449 3.97775127,12.916449 C3.6368358,12.916449 3.3047014,12.8828951 2.98186547,12.8208903 C3.65646407,14.926301 5.61259487,16.4583536 7.9318538,16.5012276 C6.1182862,17.9227403 3.83363673,18.769348 1.35063673,18.769348 C0.923458467,18.769348 0.501447267,18.7450501 0.0866666667,18.6959985 C2.43175227,20.199127 5.2164112,21.0762084 8.20923393,21.0762084" id="path3611"></path>
        </g>
    </g>
</svg>