<?xml version="1.0" encoding="UTF-8"?>
<svg width="26px" height="26px" viewBox="0 0 26 26" version="1.1" xmlns="http://www.w3.org/2000/svg" xmlns:xlink="http://www.w3.org/1999/xlink">
    <!-- Generator: Sketch 54.1 (76490) - https://sketchapp.com -->
    <title>Element/Icon Logo/Vimeo</title>
    <desc>Created with Sketch.</desc>
    <g id="Element/Icon-Logo/Vimeo" stroke="none" stroke-width="1" fill="none" fill-rule="evenodd">
        <g id="iconfinder_social_style_3_vimeo_341112" fill-rule="nonzero">
            <rect id="rect2989" fill="#44BBFF" transform="translate(13.000000, 13.000000) rotate(180.000000) translate(-13.000000, -13.000000) " x="0" y="0" width="26" height="26" rx="13"></rect>
            <path d="M6.82016055,9.70754637 C7.3163609,10.3160652 9.21083313,17.6638323 9.84321406,19.0192778 C10.3951641,20.2079597 11.9176799,21.7794373 13.587306,20.6571935 C15.2559672,19.5349086 20.8049725,14.6212112 21.7982751,8.8184723 C22.7907083,3.0175662 15.1207195,4.23273947 14.3082814,9.28671758 C16.3388687,8.02228578 17.4227351,9.80047453 16.3836481,11.8137393 C15.3464345,13.8250663 14.3987081,15.1368745 13.9024432,15.1368745 C13.4071432,15.1368745 13.0260919,13.7908946 12.4585881,11.4383501 C11.871928,9.00616184 11.8755386,4.62512146 9.43647555,5.12181313 C7.13629465,5.5900584 4.11328125,9.33413508 4.11328125,9.33413508 L4.83522102,10.3160652 C4.83522102,10.3160652 6.32392719,9.09894578 6.82016055,9.70754637 Z" id="Oval-1" fill="#FFFFFF"></path>
        </g>
    </g>
</svg>