<?xml version="1.0" encoding="UTF-8"?>
<svg width="26px" height="26px" viewBox="0 0 26 26" version="1.1" xmlns="http://www.w3.org/2000/svg" xmlns:xlink="http://www.w3.org/1999/xlink">
    <!-- Generator: Sketch 54.1 (76490) - https://sketchapp.com -->
    <title>Element/Icon Logo/WhatConverts</title>
    <desc>Created with Sketch.</desc>
    <g id="Element/Icon-Logo/WhatConverts" stroke="none" stroke-width="1" fill="none" fill-rule="evenodd">
        <g id="what-converts" transform="translate(2.000000, 0.000000)" fill-rule="nonzero">
            <path d="M6.73900621,2.54347826 C8.10360248,1.74409938 9.48919255,0.985093168 10.8311801,0.153416149 C11.0863354,0.0048447205 11.4012422,0.0888198758 11.682236,0.0726708075 C12.4993789,0.62173913 13.3875776,1.07875776 14.2434783,1.56645963 C15.1930435,2.15590062 16.1813665,2.67751553 17.1293168,3.26534161 C18.8572671,4.19552795 20.504472,5.28397516 22.2598758,6.16248447 C22.3406211,6.29490683 22.4245963,6.42732919 22.5021118,6.56136646 C22.3922981,7.72732919 22.6474534,8.91913043 22.3567702,10.0657143 C21.5654658,10.4532919 20.8306832,10.937764 20.053913,11.3511801 C19.5145342,11.6983851 18.8992547,11.926087 18.4228571,12.3685714 C18.2403727,12.3798758 18.0595031,12.3911801 17.8786335,12.4008696 C17.8947826,11.2655901 17.9367702,10.1319255 17.8786335,8.99987578 C16.6722981,8.22956522 15.391677,7.58521739 14.1691925,6.83913043 C13.2163975,6.30621118 12.2862112,5.72807453 11.301118,5.25652174 C10.5469565,5.64409938 9.81863354,6.08012422 9.08869565,6.50968944 C8.94981366,6.58720497 8.81093168,6.6647205 8.6736646,6.74062112 C6.03975155,8.23602484 3.43975155,9.79763975 0.800993789,11.2801242 C0.600745342,11.4125466 0.374658385,11.4706832 0.135652174,11.4367702 C0.151801242,9.82186335 0.12757764,8.20695652 0.151801242,6.59204969 C0.174409938,6.53068323 0.216397516,6.41440994 0.235776398,6.35304348 C0.821987578,5.90409938 1.5115528,5.60049689 2.14459627,5.2226087 C3.24919255,4.54434783 4.39254658,3.92583851 5.51006211,3.26534161 C5.90571429,3.00372671 6.31751553,2.76795031 6.7373913,2.54670807 L6.73900621,2.54347826 Z" id="Path" fill="#FD9E2C"></path>
            <path d="M10.9652174,9.49565217 C11.2122981,9.31478261 11.5223602,9.35354037 11.7565217,9.52795031 C12.6544099,10.0382609 13.5264596,10.590559 14.4534161,11.0459627 C14.4744099,12.2781366 14.4534161,13.5086957 14.4631056,14.7392547 C13.5264596,15.2802484 12.5946584,15.8309317 11.6531677,16.362236 C11.3075776,16.6206211 10.9313043,16.3299379 10.624472,16.1587578 C9.82347826,15.6581366 8.9821118,15.2334161 8.18596273,14.7279503 C8.19565217,13.5248447 8.1536646,12.3217391 8.2021118,11.1170186 C9.08385093,10.5324224 10.0463354,10.0398758 10.9636025,9.49565217 L10.9652174,9.49565217 Z M3.95652174,13.6621118 C4.19875776,13.4909317 4.48459627,13.4150311 4.77204969,13.3649689 C4.7978882,14.5180124 4.7752795,15.6710559 4.78819876,16.8208696 C6.96832298,18.0804969 9.15813665,19.3304348 11.3285714,20.6062112 C14.4340373,18.7845963 17.5669565,17.0146584 20.6740373,15.1962733 C21.2877019,14.8571429 21.8803727,14.4792547 22.5150311,14.178882 C22.5263354,15.9552795 22.5150311,17.731677 22.5247205,19.5080745 C18.8395031,21.6752795 15.1058385,23.763354 11.4303106,25.9434783 C10.9991304,25.773913 10.5873292,25.5607453 10.191677,25.323354 C6.84720497,23.3677019 3.47204969,21.4621118 0.125962733,19.5016149 C0.130807453,18.3098137 0.135652174,17.1163975 0.125962733,15.9245963 C1.36944099,15.1171429 2.70012422,14.4485714 3.95975155,13.6637267 L3.95652174,13.6621118 Z" id="Shape" fill="#13668F"></path>
        </g>
    </g>
</svg>