<?xml version="1.0" encoding="UTF-8"?>
<svg width="26px" height="26px" viewBox="0 0 26 26" version="1.1" xmlns="http://www.w3.org/2000/svg" xmlns:xlink="http://www.w3.org/1999/xlink">
    <!-- Generator: Sketch 54.1 (76490) - https://sketchapp.com -->
    <title>Element/Icon Logo/Wistia</title>
    <desc>Created with Sketch.</desc>
    <defs>
        <polygon id="path-1" points="0.00422764228 0.0138807588 25.9668691 0.0138807588 25.9668691 20.2179946 0.00422764228 20.2179946"></polygon>
    </defs>
    <g id="Element/Icon-Logo/Wistia" stroke="none" stroke-width="1" fill="none" fill-rule="evenodd">
        <g id="wistia-logo-flags" transform="translate(0.000000, 3.000000)">
            <mask id="mask-2" fill="white">
                <use xlink:href="#path-1"></use>
            </mask>
            <g id="Clip-2"></g>
            <path d="M25.9372195,7.74814092 C25.9372195,7.74814092 25.3360488,8.94456369 22.3351274,10.8358699 C21.0559837,11.6406016 18.3998266,12.4966287 14.9848076,12.8265962 C13.1408509,13.0056369 9.7460542,12.860206 8.28949051,12.860206 C6.82538753,12.860206 6.15439024,13.1686125 4.84135501,14.6474417 C0,20.1047642 0,20.1047642 0,20.1047642 C0,20.1047642 1.67647154,20.1129377 2.94265041,20.1129377 C4.20861789,20.1129377 12.1268509,20.5726938 15.6400217,19.6064661 C27.0500759,16.4704715 25.9372195,7.74814092 25.9372195,7.74814092" id="Fill-1" fill="#148EE0" mask="url(#mask-2)"></path>
            <path d="M25.6309973,4.28084011 C26.1798862,0.933674797 24.2890732,0.0138807588 24.2890732,0.0138807588 C24.2890732,0.0138807588 24.3689051,2.73873713 19.3611924,3.31651491 C14.9165312,3.82925745 0,3.44285095 0,3.44285095 C0,3.44285095 0,3.44285095 4.7938645,8.94019512 C6.09217344,10.430439 6.78134959,10.6031382 8.24108401,10.7063631 C9.70081843,10.8042331 12.9224932,10.7694255 15.1063523,10.6031382 C17.4934905,10.4200108 20.8955447,9.64163144 23.1960163,7.86003252 C24.3755989,6.94749593 25.4016477,5.67906233 25.6309973,4.28084011" id="Fill-3" fill="#54BBFF" mask="url(#mask-2)"></path>
        </g>
    </g>
</svg>