<?xml version="1.0" encoding="UTF-8"?>
<svg xmlns="http://www.w3.org/2000/svg" xmlns:xlink="http://www.w3.org/1999/xlink" width="43pt" height="26pt" viewBox="0 0 43 26" version="1.1">
<g id="surface1">
<path style=" stroke:none;fill-rule:nonzero;fill:rgb(60.784314%,36.078431%,56.078431%);fill-opacity:1;" d="M 3.992188 0 L 38.992188 0 C 41.207031 0 43 1.8125 43 4.054688 L 43 17.570312 C 43 19.8125 41.207031 21.628906 38.992188 21.628906 L 26.441406 21.628906 L 28.164062 25.894531 L 20.585938 21.628906 L 4.007812 21.628906 C 1.792969 21.628906 0 19.8125 0 17.570312 L 0 4.054688 C -0.015625 1.832031 1.777344 0 3.992188 0 Z M 3.992188 0 "/>
<path style=" stroke:none;fill-rule:nonzero;fill:rgb(100%,100%,100%);fill-opacity:1;" d="M 2.449219 3.695312 C 2.695312 3.359375 3.058594 3.183594 3.550781 3.148438 C 4.441406 3.078125 4.949219 3.5 5.070312 4.421875 C 5.613281 8.117188 6.207031 11.246094 6.835938 13.8125 L 10.664062 6.4375 C 11.015625 5.765625 11.449219 5.410156 11.976562 5.375 C 12.746094 5.324219 13.214844 5.816406 13.410156 6.863281 C 13.84375 9.214844 14.40625 11.210938 15.070312 12.910156 C 15.523438 8.417969 16.292969 5.179688 17.375 3.183594 C 17.636719 2.6875 18.023438 2.441406 18.53125 2.40625 C 18.933594 2.371094 19.300781 2.492188 19.632812 2.757812 C 19.964844 3.023438 20.136719 3.359375 20.171875 3.765625 C 20.191406 4.085938 20.136719 4.351562 20 4.617188 C 19.316406 5.890625 18.757812 8.027344 18.304688 11 C 17.867188 13.882812 17.707031 16.128906 17.8125 17.738281 C 17.847656 18.179688 17.777344 18.570312 17.605469 18.90625 C 17.394531 19.292969 17.078125 19.503906 16.675781 19.542969 C 16.222656 19.578125 15.75 19.363281 15.296875 18.886719 C 13.671875 17.207031 12.378906 14.695312 11.433594 11.351562 C 10.296875 13.617188 9.457031 15.316406 8.917969 16.445312 C 7.886719 18.445312 7.011719 19.46875 6.277344 19.523438 C 5.804688 19.558594 5.402344 19.152344 5.054688 18.304688 C 4.160156 15.988281 3.199219 11.511719 2.167969 4.878906 C 2.097656 4.421875 2.203125 4.015625 2.449219 3.695312 Z M 40.011719 6.472656 C 39.382812 5.359375 38.457031 4.6875 37.214844 4.421875 C 36.882812 4.351562 36.570312 4.316406 36.273438 4.316406 C 34.59375 4.316406 33.230469 5.199219 32.164062 6.96875 C 31.253906 8.472656 30.800781 10.132812 30.800781 11.953125 C 30.800781 13.316406 31.082031 14.484375 31.640625 15.457031 C 32.269531 16.570312 33.195312 17.242188 34.4375 17.507812 C 34.769531 17.578125 35.082031 17.613281 35.378906 17.613281 C 37.074219 17.613281 38.4375 16.730469 39.488281 14.960938 C 40.398438 13.441406 40.851562 11.777344 40.851562 9.957031 C 40.867188 8.578125 40.570312 7.425781 40.011719 6.472656 Z M 37.808594 11.371094 C 37.566406 12.539062 37.128906 13.40625 36.480469 13.988281 C 35.976562 14.449219 35.503906 14.640625 35.066406 14.554688 C 34.644531 14.464844 34.296875 14.09375 34.035156 13.40625 C 33.824219 12.855469 33.71875 12.308594 33.71875 11.796875 C 33.71875 11.351562 33.753906 10.910156 33.84375 10.503906 C 34 9.78125 34.296875 9.070312 34.769531 8.398438 C 35.34375 7.535156 35.957031 7.179688 36.585938 7.304688 C 37.007812 7.390625 37.355469 7.761719 37.617188 8.453125 C 37.828125 9 37.933594 9.550781 37.933594 10.0625 C 37.933594 10.523438 37.898438 10.964844 37.808594 11.371094 Z M 29.070312 6.472656 C 28.441406 5.359375 27.496094 4.6875 26.273438 4.421875 C 25.941406 4.351562 25.625 4.316406 25.328125 4.316406 C 23.652344 4.316406 22.289062 5.199219 21.222656 6.96875 C 20.3125 8.472656 19.859375 10.132812 19.859375 11.953125 C 19.859375 13.316406 20.136719 14.484375 20.699219 15.457031 C 21.328125 16.570312 22.253906 17.242188 23.496094 17.507812 C 23.828125 17.578125 24.140625 17.613281 24.4375 17.613281 C 26.132812 17.613281 27.496094 16.730469 28.546875 14.960938 C 29.453125 13.441406 29.910156 11.777344 29.910156 9.957031 C 29.910156 8.578125 29.628906 7.425781 29.070312 6.472656 Z M 26.851562 11.371094 C 26.605469 12.539062 26.167969 13.40625 25.523438 13.988281 C 25.015625 14.449219 24.542969 14.640625 24.105469 14.554688 C 23.6875 14.464844 23.335938 14.09375 23.074219 13.40625 C 22.863281 12.855469 22.761719 12.308594 22.761719 11.796875 C 22.761719 11.351562 22.796875 10.910156 22.882812 10.503906 C 23.039062 9.78125 23.335938 9.070312 23.808594 8.398438 C 24.386719 7.535156 24.996094 7.179688 25.625 7.304688 C 26.046875 7.390625 26.394531 7.761719 26.65625 8.453125 C 26.867188 9 26.972656 9.550781 26.972656 10.0625 C 26.988281 10.523438 26.9375 10.964844 26.851562 11.371094 Z M 26.851562 11.371094 "/>
</g>
</svg>
