<?xml version="1.0" encoding="UTF-8"?>
<svg xmlns="http://www.w3.org/2000/svg" xmlns:xlink="http://www.w3.org/1999/xlink" width="26pt" height="26pt" viewBox="0 0 26 26" version="1.1">
<g id="surface1">
<path style=" stroke:none;fill-rule:nonzero;fill:rgb(10.196078%,70.588235%,84.313725%);fill-opacity:1;" d="M 12.996094 25.945312 C 20.148438 25.945312 25.945312 20.148438 25.945312 12.996094 C 25.945312 5.847656 20.148438 0.0507812 12.996094 0.0507812 C 5.847656 0.0507812 0.0507812 5.847656 0.0507812 12.996094 C 0.0507812 20.148438 5.847656 25.945312 12.996094 25.945312 "/>
<path style=" stroke:none;fill-rule:nonzero;fill:rgb(100%,100%,100%);fill-opacity:1;" d="M 6.246094 12.960938 L 8.457031 10.746094 C 8.53125 10.667969 8.570312 10.570312 8.570312 10.464844 C 8.570312 10.246094 8.394531 10.070312 8.175781 10.070312 C 8.070312 10.070312 7.96875 10.113281 7.894531 10.1875 C 7.894531 10.1875 5.6875 12.394531 5.6875 12.394531 L 3.46875 10.183594 C 3.394531 10.109375 3.292969 10.070312 3.1875 10.070312 C 2.972656 10.070312 2.792969 10.246094 2.792969 10.464844 C 2.792969 10.574219 2.835938 10.671875 2.910156 10.746094 L 5.121094 12.957031 L 2.914062 15.167969 C 2.835938 15.246094 2.792969 15.34375 2.792969 15.453125 C 2.792969 15.671875 2.972656 15.847656 3.1875 15.847656 C 3.292969 15.847656 3.394531 15.808594 3.46875 15.730469 L 5.683594 13.519531 L 7.886719 15.722656 C 7.964844 15.804688 8.066406 15.847656 8.175781 15.847656 C 8.394531 15.847656 8.570312 15.671875 8.570312 15.453125 C 8.570312 15.347656 8.53125 15.246094 8.457031 15.171875 Z M 6.246094 12.960938 "/>
<path style=" stroke:none;fill-rule:nonzero;fill:rgb(100%,100%,100%);fill-opacity:1;" d="M 19.382812 12.957031 C 19.382812 13.355469 19.707031 13.679688 20.101562 13.679688 C 20.5 13.679688 20.820312 13.355469 20.820312 12.957031 C 20.820312 12.5625 20.5 12.238281 20.101562 12.238281 C 19.707031 12.238281 19.382812 12.5625 19.382812 12.957031 "/>
<path style=" stroke:none;fill-rule:nonzero;fill:rgb(100%,100%,100%);fill-opacity:1;" d="M 18.019531 12.960938 C 18.019531 11.808594 18.953125 10.875 20.101562 10.875 C 21.25 10.875 22.183594 11.808594 22.183594 12.960938 C 22.183594 14.109375 21.25 15.042969 20.101562 15.042969 C 18.953125 15.042969 18.019531 14.109375 18.019531 12.960938 M 17.199219 12.960938 C 17.199219 14.558594 18.5 15.863281 20.101562 15.863281 C 21.703125 15.863281 23.003906 14.558594 23.003906 12.960938 C 23.003906 11.359375 21.703125 10.054688 20.101562 10.054688 C 18.5 10.054688 17.199219 11.359375 17.199219 12.960938 "/>
<path style=" stroke:none;fill-rule:nonzero;fill:rgb(100%,100%,100%);fill-opacity:1;" d="M 16.992188 10.105469 L 16.871094 10.105469 C 16.503906 10.105469 16.152344 10.222656 15.859375 10.449219 C 15.820312 10.269531 15.660156 10.136719 15.472656 10.136719 C 15.253906 10.136719 15.078125 10.3125 15.078125 10.527344 C 15.078125 10.53125 15.082031 15.417969 15.082031 15.417969 C 15.082031 15.636719 15.257812 15.8125 15.476562 15.8125 C 15.695312 15.8125 15.871094 15.636719 15.871094 15.417969 C 15.871094 15.417969 15.871094 12.410156 15.871094 12.410156 C 15.871094 11.410156 15.964844 11.003906 16.820312 10.898438 C 16.902344 10.886719 16.988281 10.890625 16.988281 10.890625 C 17.222656 10.882812 17.390625 10.71875 17.390625 10.5 C 17.390625 10.285156 17.210938 10.105469 16.992188 10.105469 "/>
<path style=" stroke:none;fill-rule:nonzero;fill:rgb(100%,100%,100%);fill-opacity:1;" d="M 9.390625 12.480469 C 9.390625 12.46875 9.390625 12.460938 9.390625 12.449219 C 9.621094 11.539062 10.445312 10.867188 11.425781 10.867188 C 12.417969 10.867188 13.246094 11.554688 13.464844 12.480469 Z M 14.277344 12.40625 C 14.105469 11.597656 13.664062 10.933594 12.988281 10.507812 C 12.003906 9.882812 10.707031 9.917969 9.753906 10.59375 C 8.980469 11.148438 8.53125 12.050781 8.53125 12.980469 C 8.53125 13.210938 8.558594 13.449219 8.617188 13.679688 C 8.910156 14.832031 9.902344 15.703125 11.082031 15.847656 C 11.433594 15.890625 11.773438 15.871094 12.128906 15.777344 C 12.429688 15.703125 12.722656 15.582031 12.996094 15.40625 C 13.277344 15.226562 13.511719 14.988281 13.738281 14.703125 C 13.742188 14.699219 13.746094 14.695312 13.75 14.6875 C 13.910156 14.492188 13.878906 14.214844 13.707031 14.082031 C 13.558594 13.96875 13.316406 13.925781 13.121094 14.171875 C 13.082031 14.230469 13.035156 14.292969 12.984375 14.351562 C 12.828125 14.523438 12.640625 14.6875 12.410156 14.816406 C 12.121094 14.96875 11.789062 15.058594 11.4375 15.058594 C 10.285156 15.046875 9.667969 14.242188 9.449219 13.671875 C 9.414062 13.5625 9.382812 13.453125 9.363281 13.335938 C 9.359375 13.316406 9.359375 13.296875 9.355469 13.277344 C 9.59375 13.277344 13.488281 13.277344 13.488281 13.277344 C 14.054688 13.265625 14.359375 12.863281 14.277344 12.40625 "/>
</g>
</svg>
