<?xml version="1.0" encoding="UTF-8"?>
<svg width="26px" height="26px" viewBox="0 0 26 26" version="1.1" xmlns="http://www.w3.org/2000/svg" xmlns:xlink="http://www.w3.org/1999/xlink">
    <!-- Generator: Sketch 54.1 (76490) - https://sketchapp.com -->
    <title>Element/Icon Logo/Youtube</title>
    <desc>Created with Sketch.</desc>
    <g id="Element/Icon-Logo/Youtube" stroke="none" stroke-width="1" fill="none" fill-rule="evenodd">
        <g id="4ec042cd-dc67-4f14-95a7-645929313840" transform="translate(0.000000, 3.000000)">
            <path d="M25.037037,4.81481481 C24.920404,3.87363652 24.5911007,2.97134555 24.0740741,2.1762963 C23.4508966,1.46838474 22.5520063,1.06458637 21.6088889,1.06888889 C18.1614815,0.818518519 12.9422222,0.77037037 12.9422222,0.77037037 C12.9422222,0.77037037 7.75185185,0.77037037 4.27555556,1.06888889 C3.38045845,1.11150786 2.53738001,1.50194993 1.92592593,2.15703704 C1.38614629,2.94768423 1.05490582,3.86190792 0.962962963,4.81481481 C0.802282271,6.25708727 0.715502159,7.70663654 0.702962963,9.15777778 L0.702962963,11.1607407 C0.716390384,12.579831 0.803172867,13.9972782 0.962962963,15.4074074 C1.07959602,16.3485857 1.4088993,17.2508767 1.92592593,18.0459259 C2.64154454,18.7730205 3.60343556,19.2058715 4.62222222,19.2592593 C6.54814815,19.4711111 13,19.5096296 13,19.5096296 C13,19.5096296 18.1903704,19.5096296 21.6666667,19.2111111 C22.5906159,19.1685438 23.4584346,18.7554621 24.0740741,18.0651852 C24.5938407,17.264435 24.9232544,16.3552533 25.037037,15.4074074 C25.1965495,13.9811439 25.2833285,12.5476828 25.297037,11.1125926 L25.297037,9.12888889 C25.2835161,7.68738796 25.1967375,6.24750582 25.037037,4.81481481" id="Path" fill="#D6362A"></path>
            <polygon id="Path" fill="#FFFFFF" points="10.0244444 5.8162963 10.0244444 15.0414815 18.1037037 10.5348148"></polygon>
        </g>
    </g>
</svg>